<svg xmlns="http://www.w3.org/2000/svg" xmlns:xlink="http://www.w3.org/1999/xlink" width="140" height="27.85" viewBox="0 0 140 27.85">
  <defs>
    <clipPath id="clip-path">
      <rect id="長方形_2" data-name="長方形 2" width="140" height="27.85" fill="none"/>
    </clipPath>
  </defs>
  <g id="logo" transform="translate(70 13.925)">
    <g id="グループ_1" data-name="グループ 1" transform="translate(-70 -13.925)" clip-path="url(#clip-path)">
      <path id="パス_1" data-name="パス 1" d="M7.554,30.694c2.487,0,3.178,2.718,3.178,4.7s-.714,4.79-3.224,4.79-3.385-2.695-3.385-4.79.967-4.7,3.431-4.7M0,48.819H3.846V41.127h.069a5.046,5.046,0,0,0,4.33,2.027c4.606,0,6.494-3.5,6.494-7.761S12.828,27.7,8.314,27.7a5.013,5.013,0,0,0-4.583,2.441H3.662v-2.1H0Z" transform="translate(0 -21.321)" fill="#070"/>
      <path id="パス_2" data-name="パス 2" d="M73.085,38.547c0-2.257,2.556-2.556,4.261-2.556H79a4.8,4.8,0,0,1-.806,3.04A3.27,3.27,0,0,1,75.5,40.344c-1.382,0-2.441-.553-2.441-1.8m-1.935-6.425a7.715,7.715,0,0,1,4.56-1.612c2.257,0,3.316.806,3.316,3.178H76.885a11.648,11.648,0,0,0-4.951.852A4.39,4.39,0,0,0,69.4,38.777c0,2.81,2.556,4.376,5.159,4.376a5.288,5.288,0,0,0,4.56-2.556h.046a17.8,17.8,0,0,0,.184,2.211h3.385c-.092-1.152-.138-2.188-.161-3.293s-.046-2.211-.046-3.708V33.918c0-4.353-1.865-6.218-6.356-6.218a13.219,13.219,0,0,0-5.136,1.105Z" transform="translate(-53.417 -21.321)" fill="#070"/>
      <rect id="長方形_1" data-name="長方形 1" width="3.846" height="21.489" transform="translate(32.035)" fill="#070"/>
      <path id="パス_3" data-name="パス 3" d="M281.584,39.978h.069L285.2,29.2h3.892l-5.527,14.647c-1.244,3.27-2.119,6.471-6.126,6.471a9.789,9.789,0,0,1-2.718-.392l.253-2.833a5.643,5.643,0,0,0,1.981.253,2.4,2.4,0,0,0,2.487-2.648L273.8,29.2h4.237Z" transform="translate(-210.744 -22.475)" fill="#070"/>
      <path id="パス_4" data-name="パス 4" d="M396.456,18.078H393.6v-2.81h2.856V12.321L400.3,11.1v4.168h3.408v2.81h-3.431v6.886c0,1.267.345,2.441,1.8,2.441a3.431,3.431,0,0,0,1.75-.392l.115,3.04a10.156,10.156,0,0,1-2.833.345c-2.994-.023-4.652-1.888-4.652-4.813Z" transform="translate(-302.954 -8.544)" fill="#070"/>
      <path id="パス_5" data-name="パス 5" d="M513.8,28.122h3.593V30.2h.046a5.2,5.2,0,0,1,4.376-2.4,4.328,4.328,0,0,1,4.353,2.6,5.07,5.07,0,0,1,4.606-2.6c3.639,0,4.675,2.487,4.675,5.781v9.3h-3.823v-8.8c0-1.382,0-3.316-2.211-3.316-2.556,0-2.856,3.04-2.856,4.951v7.162h-3.846v-8.8c0-1.382,0-3.316-2.211-3.316s-2.856,3.04-2.856,4.951v7.162H513.8Z" transform="translate(-395.471 -21.398)" fill="#070"/>
      <path id="パス_6" data-name="パス 6" d="M175.3,43.72l1.566-.507,1.75-.576-.6-1.819-1.75.576-1.543.507V38.4h-1.935v3.5l-1.543-.507-1.773-.576-.576,1.819,1.75.576,1.543.507-.944,1.313-1.082,1.5,1.543,1.128,1.082-1.5.967-1.313.967,1.313,1.082,1.5,1.543-1.128-1.082-1.5Z" transform="translate(-130.002 -29.556)" fill="#f60"/>
      <path id="パス_7" data-name="パス 7" d="M347.115,32.152c.046-1.267,1.29-1.589,2.326-1.543a8.959,8.959,0,0,1,3.04.622l.345-2.833a16.376,16.376,0,0,0-3.777-.622c-3.017-.115-5.827,1.175-5.965,4.353-.207,5.32,6.541,3.593,6.425,6.494-.046,1.428-1.612,1.75-2.579,1.7a8.152,8.152,0,0,1-3.293-.875l-.345,3.04a16.6,16.6,0,0,0,3.892.668c3.109.115,6.241-1.128,6.356-4.583.207-5.32-6.518-4.076-6.425-6.425" transform="translate(-264.068 -21.374)" fill="#070"/>
      <path id="パス_8" data-name="パス 8" d="M228.092,32.229c.046-1.267,1.29-1.589,2.326-1.543a8.959,8.959,0,0,1,3.04.622l.345-2.833a16.375,16.375,0,0,0-3.754-.6c-3.017-.115-5.827,1.175-5.965,4.353-.207,5.32,6.541,3.593,6.425,6.494-.046,1.428-1.612,1.75-2.579,1.7a8.153,8.153,0,0,1-3.293-.875l-.368,3.04a16.6,16.6,0,0,0,3.892.668c3.109.115,6.241-1.128,6.356-4.583.207-5.32-6.518-4.076-6.425-6.425" transform="translate(-172.474 -21.451)" fill="#070"/>
      <path id="パス_9" data-name="パス 9" d="M451.176,40.344a3.864,3.864,0,0,1-4.215-3.731h10.087c0-5.159-1.428-8.913-6.909-8.913-4.583,0-6.84,3.524-6.84,7.784,0,4.836,2.833,7.646,7.715,7.646a10.346,10.346,0,0,0,4.767-1.013V39.031a9.516,9.516,0,0,1-4.606,1.313m-.806-9.834c2.142,0,3.017,1.612,3.132,3.478h-6.541c.184-1.981,1.267-3.478,3.409-3.478" transform="translate(-341.208 -21.321)" fill="#070"/>
    </g>
  </g>
</svg>