<svg data-test-id="Icon" width="24" height="46px" fill="currentColor" viewBox="0 0 24 24" xmlns="http://www.w3.org/2000/svg"><title>Pinterest</title><path d="M5 9.457c0-.78.136-1.514.406-2.2.27-.688.643-1.29 1.12-1.803a7.637 7.637 0 0 1 3.646-2.173A8.573 8.573 0 0 1 12.358 3c1.138 0 2.2.24 3.18.72a6.006 6.006 0 0 1 2.392 2.094c.614.917.92 1.951.92 3.105 0 .692-.068 1.37-.205 2.033a8.227 8.227 0 0 1-.649 1.914 6.667 6.667 0 0 1-1.082 1.617 4.724 4.724 0 0 1-1.568 1.115 4.955 4.955 0 0 1-2.044.417c-.49 0-.977-.116-1.46-.346-.483-.231-.83-.547-1.038-.951-.072.28-.173.687-.303 1.218-.13.53-.215.872-.254 1.026-.04.155-.114.412-.222.768a5.154 5.154 0 0 1-.28.768c-.08.154-.196.38-.346.676-.15.296-.318.575-.498.838-.18.262-.404.575-.67.935L8.08 21l-.098-.108c-.109-1.132-.162-1.812-.162-2.034 0-.663.077-1.409.233-2.234a46.97 46.97 0 0 1 .72-3.11c.325-1.247.513-1.98.562-2.196-.231-.469-.345-1.079-.345-1.828 0-.599.187-1.161.562-1.688.375-.527.85-.79 1.427-.79.441 0 .783.147 1.027.439.246.292.367.661.367 1.11 0 .475-.158 1.164-.476 2.066-.317.902-.475 1.576-.475 2.022 0 .454.161.832.487 1.13.325.3.718.448 1.179.448.396 0 .764-.09 1.103-.27.34-.18.623-.426.849-.735a6.165 6.165 0 0 0 1.018-2.224c.097-.423.168-.823.216-1.201a8.59 8.59 0 0 0 .07-1.077c0-1.247-.395-2.219-1.185-2.915-.79-.696-1.818-1.043-3.087-1.043-1.442 0-2.647.466-3.613 1.401-.966.933-1.449 2.118-1.449 3.555 0 .317.046.624.136.92.09.296.187.53.292.703.105.173.202.338.292.493.09.154.136.264.136.33 0 .202-.053.465-.162.79-.108.325-.242.487-.4.487-.015 0-.075-.011-.184-.033a2.216 2.216 0 0 1-.979-.606 3.148 3.148 0 0 1-.659-1.023 6.695 6.695 0 0 1-.35-1.169A4.967 4.967 0 0 1 5 9.457z"></path></svg>