<svg xmlns="http://www.w3.org/2000/svg" width="90" height="39.334" viewBox="0 0 90 39.334">
  <g id="logo" transform="translate(-2.113 -0.886)">
    <g id="グループ_31" data-name="グループ 31" transform="translate(2.113 0.886)">
      <path id="パス_30" data-name="パス 30" d="M145.456,4.279h3.817a1.231,1.231,0,0,1,1.244,1.216V32.267a1.34,1.34,0,0,0,1.357,1.357,1.313,1.313,0,0,0,.65-.17l7.068-4.665a2.115,2.115,0,0,0,.848-1.668V5.494a1.238,1.238,0,0,1,1.272-1.216h6.5V.886H145.2a1.672,1.672,0,0,0-1.64,1.244c-.17.735-.679.876-1.244.933H127.843a1.7,1.7,0,1,0,0,3.393h1.385a1.231,1.231,0,0,1,1.244,1.216v24.6a22.429,22.429,0,0,1-.311,4.184c-.368,1.414-1.753,1.329-2.318-.113a4.788,4.788,0,0,0-1.838-2.516,3.187,3.187,0,0,0-3.59,5.258,5.555,5.555,0,0,0,4.269,1.1c1.7-.17,3.336-.961,5.569-2.516l5.315-3.817c1.357-1.046,3.082-1.725,3.025-5.117V7.671a1.207,1.207,0,0,1,1.216-1.216h.933a1.7,1.7,0,0,0,1.583-1.074c.226-.509.254-1.1,1.131-1.1" transform="translate(-78.215 -0.886)" fill="#00ae68"/>
      <g id="グループ_16" data-name="グループ 16" transform="translate(0.655 2.149)">
        <path id="パス_31" data-name="パス 31" d="M4.646,12.315h0a4.963,4.963,0,0,1,1.272-3.11h0a1.927,1.927,0,0,0,.141-.2h0a5.1,5.1,0,0,1-1.244.4h0a.7.7,0,0,1-.65-.679h0a.289.289,0,0,1,.311-.283h0a.682.682,0,0,1,.226.085h0c.113.028.085.028.141.028h0a13.131,13.131,0,0,0,1.442-.311h0a2.2,2.2,0,0,1,.452-.17h0a.585.585,0,0,1,.537.594h0V8.7h0a.383.383,0,0,1-.17.311h0c-.17.113-.113.028-.254.226h0a5.173,5.173,0,0,0-1.47,3.195h0a1.4,1.4,0,0,0,1.5,1.442h0c1.3,0,1.866-1.329,1.866-2.968h0a6.807,6.807,0,0,0-.509-2.629h0a.675.675,0,0,1-.057-.254h0a.423.423,0,0,1,.424-.4h.028a.456.456,0,0,1,.424.368h0l.226.594a6.957,6.957,0,0,0,1.583,2.233h0a.692.692,0,0,1,.226.452h0a.411.411,0,0,1-.424.4h0c-.537-.085-.848-.763-1.159-1.216h0a7.056,7.056,0,0,1,.057.707h0c0,1.244-.481,3.534-2.714,3.562h0a2.21,2.21,0,0,1-2.205-2.4Z" transform="translate(-4.166 -7.622)" fill="#00ae68"/>
      </g>
      <g id="グループ_17" data-name="グループ 17" transform="translate(15.555 1.979)">
        <path id="パス_32" data-name="パス 32" d="M49.112,14.073a1.527,1.527,0,0,1-1.074-1.5h0a2.791,2.791,0,0,1,1.47-2.149h0a2.09,2.09,0,0,1-.254-1.187h0V9.182h0V8.871h0a6.723,6.723,0,0,0-.028-1.131h0c0-.028-.028-.057-.057-.085h0a.547.547,0,0,1-.141-.254h0a.332.332,0,0,1,.311-.311h0a.738.738,0,0,1,.763.65h0v.311h0l-.028.622v.848a1.827,1.827,0,0,0,.085.622h0c.339-.141.509-.2,1.272-.452h0a1.208,1.208,0,0,0,.339-.17h0a.618.618,0,0,1,.254-.085h.028a.643.643,0,0,1,.594.509h0v.028a.408.408,0,0,1-.254.339h0a2.1,2.1,0,0,1-.481.085h-.028a.214.214,0,0,0-.113.028h0a3.688,3.688,0,0,1-.368.085h0a5.863,5.863,0,0,0-1.1.4h0c-.792.339-1.555.9-1.555,1.64h0V12.6h0a.81.81,0,0,0,.537.792h0a2.884,2.884,0,0,0,1.131.17h0a7.065,7.065,0,0,0,1.527-.2h0l.17-.028h.028c.057,0,.113-.028.17-.028h0c.113.028.565.028.622.481h0c0,.254-.226.368-.368.424h0a9.8,9.8,0,0,1-1.922.141h0a5.345,5.345,0,0,1-1.527-.283Z" transform="translate(-48.038 -7.09)" fill="#00ae68"/>
      </g>
      <g id="グループ_18" data-name="グループ 18" transform="translate(1.474 15.436)">
        <path id="パス_33" data-name="パス 33" d="M7.81,56.346a1.527,1.527,0,0,1-1.074-1.5h0A2.791,2.791,0,0,1,8.206,52.7h0a2.206,2.206,0,0,1-.254-1.216h0v-.028h0v-.509h0c0-.707,0-.876-.057-.961h0v-.028h0a.217.217,0,0,1-.057-.085h0a.533.533,0,0,1-.113-.254h0v-.028a.337.337,0,0,1,.339-.311h0a.756.756,0,0,1,.763.65h0v.283h0l-.028.622v.848a1.827,1.827,0,0,0,.085.622h0a6.492,6.492,0,0,1,1.272-.452h0a1.859,1.859,0,0,0,.339-.17h0a.44.44,0,0,1,.254-.085h0a.7.7,0,0,1,.622.509h0v.028a.408.408,0,0,1-.254.339h0a2.1,2.1,0,0,1-.481.085h0a9.586,9.586,0,0,0-1.611.509h0c-.792.339-1.555.9-1.555,1.64h0v.057h0a.81.81,0,0,0,.537.792h0a2.884,2.884,0,0,0,1.131.17h0a9.346,9.346,0,0,0,1.527-.17h0l.17-.028c.057,0,.113-.028.2-.028h0a.554.554,0,0,1,.622.481h0c0,.254-.226.368-.368.424h0a11.84,11.84,0,0,1-1.922.17h0a4.275,4.275,0,0,1-1.555-.226Z" transform="translate(-6.736 -49.278)" fill="#00ae68"/>
      </g>
      <g id="グループ_19" data-name="グループ 19" transform="translate(15.314 15.436)">
        <path id="パス_34" data-name="パス 34" d="M50.24,56.6a5.188,5.188,0,0,1-1.809-.311h0a1.514,1.514,0,0,1-1.074-1.3h0a1.273,1.273,0,0,1,.311-.792h0a2.126,2.126,0,0,1,1.753-.622h0a5.7,5.7,0,0,1,1.357.141h0a7.009,7.009,0,0,1-.509-.876h0a4.663,4.663,0,0,1-1.216.17h0c-.933-.057-1.47-.226-1.64-.622h0V52.36a.3.3,0,0,1,.283-.283h0a.558.558,0,0,1,.2.057h.028a2.283,2.283,0,0,0,.876.141h.057a3.392,3.392,0,0,0,1.018-.141h0c-.085-.17-.141-.283-.311-.565h0a3.3,3.3,0,0,1-.876.113h0c-.792-.057-1.216-.254-1.357-.622h0v-.028a.283.283,0,0,1,.283-.283h0a.437.437,0,0,1,.226.085h0a2.3,2.3,0,0,0,.679.113h.028a2.134,2.134,0,0,0,.65-.085h0c-.141-.311-.339-.735-.368-.792h0c-.028-.057-.085-.113-.113-.113h0c-.113-.057-.311-.113-.339-.339h0a.341.341,0,0,1,.311-.311h0a.9.9,0,0,1,.2-.028h.028a.626.626,0,0,1,.594.424h0l.085.226v.028h0a6.4,6.4,0,0,0,.311.735h0c.226-.085.311-.113.311-.113h0a4.715,4.715,0,0,1,.876-.339h0a.406.406,0,0,1,.424.368h0c-.028.311-.283.4-.481.452h0l-.17.057c-.283.113-.452.2-.65.254h0a3.378,3.378,0,0,0,.311.565h0a4.713,4.713,0,0,0,.622-.254h0a1.434,1.434,0,0,1,.594-.226h0a.462.462,0,0,1,.481.424h0c-.028.283-.283.339-.4.424h0l-.2.057-.2.085-.226.085a1.949,1.949,0,0,1-.283.113h0a14.149,14.149,0,0,0,.848,1.272h0c.283.311.4.452.4.65h0a.411.411,0,0,1-.4.424h-.028a.583.583,0,0,1-.4-.2h0a4.639,4.639,0,0,0-2.064-.509h-.028a1.781,1.781,0,0,0-1.046.226h0a.57.57,0,0,0-.254.424h0c0,.254.339.82,1.922.82h0c.057,0,.537-.028.65-.028h0a.54.54,0,0,1,.565.481h0v.028h0a.4.4,0,0,1-.368.368h0a3.256,3.256,0,0,1-.565.028h0c.113-.028.113-.028.085-.028Z" transform="translate(-47.328 -49.278)" fill="#00ae68"/>
      </g>
      <g id="グループ_20" data-name="グループ 20" transform="translate(28.847 15.351)">
        <path id="パス_35" data-name="パス 35" d="M89.05,56.221a1.027,1.027,0,0,1-.735-1.018h0c.028-.989,1.131-1.555,1.781-1.894h0a1.218,1.218,0,0,0-.085-.481h0a.341.341,0,0,0-.339-.226h-.057c-.509,0-1.329.933-1.5,1.244h0c-.17.339-.283.509-.509.509h0a.423.423,0,0,1-.4-.424h0c0-.254.113-.339.537-.989h0c.283-.424.735-1.244.961-1.7h-.339a1.278,1.278,0,0,1-.82-.226h0a.463.463,0,0,1-.226-.368h0c0-.141.113-.226.283-.226h.057l.057.028a1.348,1.348,0,0,0,.565.113h0a7.417,7.417,0,0,0,.763-.028h0c.141-.339.339-.792.368-.876h0a1.224,1.224,0,0,0,.028-.141h0l-.028-.057h0a.376.376,0,0,1-.085-.2h0a.276.276,0,0,1,.283-.254h0a.742.742,0,0,1,.65.594h0a.629.629,0,0,1-.113.368h0l-.057.113c-.028.085-.113.2-.17.339h0a5.949,5.949,0,0,0,.679-.17h0a1.494,1.494,0,0,1,.481-.113h0a.414.414,0,0,1,.424.368h0a.354.354,0,0,1-.226.311h0a9.822,9.822,0,0,1-1.809.368h0c-.17.283-.368.65-.565,1.018h0a1.724,1.724,0,0,1,.792-.2h0a1.122,1.122,0,0,1,1.074,1.018h0l.424-.17.65-.311.141-.085.141-.057h0a.028.028,0,0,0,.028-.028h0a.39.39,0,0,1,.113-.085h0a.5.5,0,0,1,.283-.113h0c.2.028.622.113.679.537h0c-.028.226-.254.283-.424.311h0c-.17.028-1.244.424-1.951.707h0v.4h0v.424a.776.776,0,0,1-.057.339h0a.375.375,0,0,1-.368.254h0a.281.281,0,0,1-.283-.2h0a1.459,1.459,0,0,1-.057-.311h0v-.594c-.537.283-1.187.679-1.159,1.1h0v.028h0c0,.226.141.339.368.424h0a2.523,2.523,0,0,0,.82.085h0c.368,0,.9-.057,1.159-.085h0a3.115,3.115,0,0,1,.509-.057h0a.723.723,0,0,1,.311.057h0a.467.467,0,0,1,.254.368h0V56h0a.339.339,0,0,1-.283.339h0a14.756,14.756,0,0,1-1.725.141h0a6.617,6.617,0,0,1-1.3-.254Z" transform="translate(-87.212 -49.012)"/>
      </g>
      <g id="グループ_21" data-name="グループ 21" transform="translate(38.029 21.119)">
        <path id="パス_36" data-name="パス 36" d="M116.069,68.987a4.723,4.723,0,0,1-.424-.565h0a3.932,3.932,0,0,0-.876-.82h0a.286.286,0,0,1-.17-.254h0a.257.257,0,0,1,.283-.254h0a2.741,2.741,0,0,1,1.159.537h0a1.752,1.752,0,0,1,.848,1.046h0a.543.543,0,0,1-.481.537h0a.9.9,0,0,1-.339-.226Z" transform="translate(-114.599 -67.093)"/>
      </g>
      <g id="グループ_22" data-name="グループ 22" transform="translate(2.125 33.727)">
        <path id="パス_37" data-name="パス 37" d="M9.312,109.251a.9.9,0,0,1-.424-.9h0a7.2,7.2,0,0,0-.028-1.216h0c0-.028-.028-.028-.028-.057h0a.4.4,0,0,1-.057-.17h0v-.028a.28.28,0,0,1,.283-.254h.028c.113,0,.565.028.594.452h0c0,.085-.028,1.046-.028,1.244h0a.628.628,0,0,0,.028.254h0c.028.057.028.057.085.085h0a6.05,6.05,0,0,0,1.187.085h0a5.618,5.618,0,0,0,1.5-.141h0c.17-.085.17-.141.226-.368h0a.251.251,0,0,1,.254-.2h.028c.4.2.311.735.368.848h0v.028c0,.368-.368.452-.594.452h0c-.283.028-1.187.057-1.809.057h0a3.1,3.1,0,0,1-1.611-.17Z" transform="translate(-8.774 -106.622)"/>
      </g>
      <g id="グループ_23" data-name="グループ 23" transform="translate(0.174 34.095)">
        <path id="パス_38" data-name="パス 38" d="M2.659,109.64h0c0-.17.113-.254.226-.4h0A3.253,3.253,0,0,0,3.535,108h0a.249.249,0,0,1,.254-.226h0c.226.057.254.283.226.283h0c-.028.9-.283,1.894-.933,1.979h0a.411.411,0,0,1-.424-.4Z" transform="translate(-2.659 -107.774)"/>
      </g>
      <g id="グループ_24" data-name="グループ 24" transform="translate(6.168 33.756)">
        <path id="パス_39" data-name="パス 39" d="M22.495,108.491h0a5.968,5.968,0,0,0-.933-1.3h0a.278.278,0,0,1-.113-.226h0c0-.141.113-.226.254-.254h0a3.359,3.359,0,0,1,1.753,1.866h0a.419.419,0,0,1-.4.452h0c-.311,0-.4-.2-.565-.537Z" transform="translate(-21.448 -106.71)"/>
      </g>
      <g id="グループ_25" data-name="グループ 25" transform="translate(3.764 33.727)">
        <path id="パス_40" data-name="パス 40" d="M14.678,107.809h0a4.059,4.059,0,0,0-.707-.792h0l-.028-.028-.028-.113v-.028a.249.249,0,0,1,.254-.226h0c.226.057,1.244.452,1.329,1.1h0a.406.406,0,0,1-.368.424h0c-.254.028-.368-.17-.452-.339Z" transform="translate(-13.915 -106.622)"/>
      </g>
      <g id="グループ_26" data-name="グループ 26" transform="translate(0 28.526)">
        <path id="パス_41" data-name="パス 41" d="M3.871,95.261a.577.577,0,0,1-.057-.254h0c0-.028.028-.876.057-1.5h0a4.724,4.724,0,0,1-1.527,1.414H2.316c-.113,0-.226-.085-.2-.283h0v-.085h0v-.028l.254-.283A10.146,10.146,0,0,0,3.7,92.377H3.616c-.085,0-.65.057-.792.057h0c-.311-.028-.509-.17-.537-.368h0v-.028a.272.272,0,0,1,.226-.254h.028c.057,0,.254.028.254.028H3.871v-.707h0a.872.872,0,0,0-.028-.283h0c-.028-.057-.028-.057-.028-.085h0c-.028-.028-.028-.057-.057-.141h0a.3.3,0,0,1,.254-.283h0c.113.028.537.028.622.452h0c0,.085-.028.283-.028.339h0c0,.17-.028.424-.028.65h0a.7.7,0,0,0,.254-.028h.057A1.225,1.225,0,0,1,5.03,91.7h0a1.244,1.244,0,0,1,.283-.057h.028c.141.028.509.057.565.424h0v.028a.3.3,0,0,1-.226.254h0a1.493,1.493,0,0,1-.368.028H4.549v.085h0c.368.2,1.046.679,1.131,1.216h0a.381.381,0,0,1-.368.4h0a.467.467,0,0,1-.368-.254h0a4.123,4.123,0,0,0-.4-.594h0c0,.594.028,1.5.028,1.781h0v.028h0a.462.462,0,0,1-.424.509h0a.551.551,0,0,1-.283-.283Z" transform="translate(-2.113 -90.314)"/>
      </g>
      <g id="グループ_27" data-name="グループ 27" transform="translate(3.821 28.723)">
        <path id="パス_42" data-name="パス 42" d="M14.149,95.627a.527.527,0,0,1-.028-.283h0c0-.424.057-2.46.057-2.912h0c0-.085,0-.735-.028-1.018h0v-.028h0c0-.028,0-.057-.028-.057h0a1.224,1.224,0,0,0-.028-.141h0a.279.279,0,0,1,.283-.254h0a.5.5,0,0,1,.368.17h1.979c.2,0,.17,0,.226-.028h0c.028,0,.028-.028.057-.028h0a.409.409,0,0,1,.2-.057h0a.573.573,0,0,1,.537.509h0a.725.725,0,0,1-.113.254h0v.311h0v.085h0c0,.424.028,2.6.028,3.082h0a.453.453,0,0,1-.424.509h0a.37.37,0,0,1-.368-.311h0l-2.036.057a.453.453,0,0,1-.424.4h0a.45.45,0,0,1-.254-.254Zm2.6-1.583-1.866.028v.763l1.131-.028a2.432,2.432,0,0,0,.452-.028h0c.057,0,.311-.028.368-.028h.057v-.735h0a.212.212,0,0,1-.141.028Zm-1.866-1.187v.65l1.131-.028a2.432,2.432,0,0,0,.452-.028h0a1.419,1.419,0,0,1,.339-.057h.028a.1.1,0,0,1,.085.028h0v-.594h-.141l-1.894.028Zm0-.565,1.131-.028c.2,0,.368-.028.452-.028h0c.057,0,.254-.057.339-.057h0a.1.1,0,0,1,.085.028h0v-.565h0l-1.272.028c-.113,0-.594.028-.707.028h-.028v.594Z" transform="translate(-14.092 -90.934)"/>
      </g>
      <g id="グループ_29" data-name="グループ 29" transform="translate(15.704 28.978)">
        <g id="グループ_28" data-name="グループ 28">
          <path id="パス_43" data-name="パス 43" d="M50.957,93.767a1.757,1.757,0,0,1,1.385.565h0a1.827,1.827,0,0,1,.452,1.244h0a4,4,0,0,1-1.47,2.855h0a4.908,4.908,0,0,1-1.5.876H49.8a.272.272,0,0,1-.226-.254h0v-.028h0a.456.456,0,0,1,.113-.2h0a.653.653,0,0,0,.2-.141h0c.481-.311,2.092-1.527,2.092-3.166h0c-.028-.679-.311-1.131-1.018-1.131h0a3.392,3.392,0,0,0-1.611.65h0a.816.816,0,0,1-.481.17h0a.8.8,0,0,1-.65-.735h0a.26.26,0,0,1,.283-.254h0a.877.877,0,0,1,.2.057h.028a.307.307,0,0,0,.141.028h0c.028,0,.17-.028.2-.028h0l.707-.283a3.965,3.965,0,0,1,1.187-.226Zm.254-.678h0a8.929,8.929,0,0,0-1.187-.679h0a2.318,2.318,0,0,1-.311-.113h0a1.178,1.178,0,0,0-.17-.057h0c-.085-.028-.141-.085-.2-.226h0v-.028a.188.188,0,0,1,.141-.2h0a.586.586,0,0,1,.17-.057h0a5.252,5.252,0,0,1,1.385.283h0c.452.17.848.424.9.763h0a.384.384,0,0,1-.4.4h0a.474.474,0,0,1-.339-.085Z" transform="translate(-48.215 -91.732)"/>
        </g>
        <path id="パス_44" data-name="パス 44" d="M79.565,111a1.264,1.264,0,0,1-1.216-1.216h0a1.224,1.224,0,0,1,1.216-1.216h0a1.207,1.207,0,0,1,1.216,1.216h0A1.223,1.223,0,0,1,79.565,111ZM79,109.787a.586.586,0,0,0,.565.565h0a.586.586,0,0,0,.565-.565h0a.586.586,0,0,0-.565-.565h0a.567.567,0,0,0-.565.565Z" transform="translate(-68.737 -103.2)"/>
      </g>
      <g id="グループ_30" data-name="グループ 30" transform="translate(28.415 2.827)">
        <path id="パス_45" data-name="パス 45" d="M88.964,15.828a.31.31,0,0,1-.113-.254h0a.028.028,0,0,1,.028-.028h0l.085-.113.028-.028a2.885,2.885,0,0,1,.424-.113h0A3.016,3.016,0,0,0,91.9,12.548h0a2.077,2.077,0,0,0-2.149-2.205h-.028v.226h0a5.7,5.7,0,0,1-1.018,3.166h0c-.4.594-.933,1.3-1.7,1.329h0a1.049,1.049,0,0,1-.933-.707h0a2.813,2.813,0,0,1-.2-1.131h0a3.758,3.758,0,0,1,3.93-3.477h0a2.807,2.807,0,0,1,2.968,2.771h0a3.2,3.2,0,0,1-1.131,2.4h0a4.491,4.491,0,0,1-2.488.961h0a.239.239,0,0,1-.2-.057ZM87.72,11.05a2.968,2.968,0,0,0-1.1,2.347h0a2.567,2.567,0,0,0,.085.65h0c.085.2.141.283.226.283h0c.283,0,.622-.113,1.329-1.3h0a5.945,5.945,0,0,0,.848-2.6h0a3.1,3.1,0,0,0-1.385.622Z" transform="translate(-85.883 -9.749)"/>
      </g>
    </g>
  </g>
</svg>
