<svg xmlns="http://www.w3.org/2000/svg" width="186" height="150" viewBox="0 0 134.2 108"><style/><g id="_x30_1_jcb"><path d="M132.8 83.1c0 11.2-9 20.2-20.2 20.2H3V23.5C3 12.4 12.1 3.3 23.2 3.3h109.6v79.8z" fill="#fff"/><linearGradient id="SVGID_2_" gradientUnits="userSpaceOnUse" x1="90.01" y1="53.323" x2="125.598" y2="53.323"><stop offset="0" stop-color="#007f40"/><stop offset=".085" stop-color="#09853e"/><stop offset=".486" stop-color="#319d37"/><stop offset=".804" stop-color="#49ac33"/><stop offset="1" stop-color="#52b131"/></linearGradient><path d="M97.1 62.7h8.4c.3 0 .8 0 1-.1 1.6-.3 3-1.8 3-3.7 0-1.9-1.3-3.4-3-3.7-.2 0-.7-.1-1-.1h-8.4v7.6zm7.4-52.7c-8 0-14.4 6.5-14.4 14.4v15h20.4c.5 0 1 0 1.4.1 4.6.2 8 2.6 8 6.7 0 3.2-2.3 6-6.5 6.6v.2c4.7.3 8.2 2.9 8.2 7 0 4.4-3.9 7.2-9.2 7.2H90v29.4h21.2c8 0 14.4-6.5 14.4-14.4V10h-21.1zm3.9 37.3c0-1.9-1.3-3.2-2.9-3.5-.1 0-.5-.1-.8-.1h-7.6v7h7.6c.3 0 .7 0 .8-.1 1.5-.1 2.9-1.4 2.9-3.3z" fill="url(#SVGID_2_)"/><linearGradient id="SVGID_3_" gradientUnits="userSpaceOnUse" x1="10.208" y1="53.323" x2="45.785" y2="53.323"><stop offset="0" stop-color="#123176"/><stop offset=".403" stop-color="#094f98"/><stop offset=".773" stop-color="#0264b0"/><stop offset="1" stop-color="#006cb9"/></linearGradient><path d="M24.6 10c-8 0-14.4 6.5-14.4 14.4V60c4.1 2 8.2 3.2 12.5 3.2 5 0 7.7-3 7.7-7.1V39.5h12.4v16.7c0 6.5-4 11.8-17.8 11.8-8.3 0-14.8-1.8-14.8-1.8v30.4h21.2c7.9 0 14.4-6.5 14.4-14.4V10H24.6z" fill="url(#SVGID_3_)"/><linearGradient id="SVGID_4_" gradientUnits="userSpaceOnUse" x1="50.121" y1="53.323" x2="85.676" y2="53.323"><stop offset="0" stop-color="#812830"/><stop offset=".192" stop-color="#991f32"/><stop offset=".545" stop-color="#c11035"/><stop offset=".827" stop-color="#d90637"/><stop offset="1" stop-color="#e20338"/></linearGradient><path d="M64.5 10c-7.9 0-14.4 6.5-14.4 14.4v18.9c3.7-3.1 10-5.1 20.2-4.6 5.5.2 11.3 1.7 11.3 1.7v6.1c-2.9-1.5-6.4-2.9-10.9-3.2-7.8-.6-12.5 3.2-12.5 10 0 6.7 4.7 10.5 12.5 9.9 4.5-.3 8.1-1.7 10.9-3.2v6.1s-5.8 1.5-11.3 1.7c-10.3.5-16.6-1.5-20.2-4.6v33.3h21.2c8 0 14.4-6.5 14.4-14.4V10H64.5z" fill="url(#SVGID_4_)"/></g></svg>