<svg xmlns="http://www.w3.org/2000/svg" width="50" height="50" viewBox="0 0 50 50"><g transform="translate(-987 -145)"><circle cx="25" cy="25" r="25" transform="translate(987 145)" fill="red"/><path d="M35.3,3.926A4.543,4.543,0,0,0,32.126.748C29.321,0,18.1,0,18.1,0S6.884,0,4.126.748A4.543,4.543,0,0,0,.948,3.926C.2,6.731.2,12.621.2,12.621s0,5.89.748,8.694a4.543,4.543,0,0,0,3.179,3.179c2.8.748,13.976.748,13.976.748s11.218,0,13.976-.748a4.543,4.543,0,0,0,3.179-3.179c.748-2.8.748-8.694.748-8.694S36.052,6.731,35.3,3.926Z" transform="translate(994.426 157.58)" fill="#fff"/><path d="M30.7,26.258l9.349-5.329L30.7,15.6Z" transform="translate(978.183 149.272)" fill="red"/></g></svg>