<svg xmlns="http://www.w3.org/2000/svg" viewBox="0 0 182.38 40.42"><defs><style>.cls-1{fill:#fff;}.cls-2{fill:#c3d832;}.cls-3{fill:#f5ba1b;}.cls-4{fill:#ef7d1c;}.cls-5{fill:#e7211a;}</style></defs><title>logo_adnw-w_1</title><g id="レイヤー_2" data-name="レイヤー 2"><g id="レイヤー_1-2" data-name="レイヤー 1"><path class="cls-1" d="M53.43,9.93a5,5,0,0,0-1.33,0,1,1,0,0,1-.91-.36,1.44,1.44,0,0,1-.31-.94,1.46,1.46,0,0,1,.31-1,.92.92,0,0,1,.91-.34,7.2,7.2,0,0,0,2,.13,26,26,0,0,0,3.27-.13V20.29c0,.49.33.76,1,.82A8.31,8.31,0,0,0,60.53,21a1.07,1.07,0,0,1,1,.28,1.31,1.31,0,0,1,.36,1,1.39,1.39,0,0,1-.36,1,1.19,1.19,0,0,1-1,.37c-1.74,0-3.46-.06-5.19-.06s-3.24,0-4.57.06a1,1,0,0,1-.89-.37,1.47,1.47,0,0,1-.29-.94,1.59,1.59,0,0,1,.29-1,.87.87,0,0,1,.89-.34L51,21a16,16,0,0,0,2.39.09c.75-.06,1.13-.31,1.13-.76V10.42c0-.27-.38-.43-1.13-.49m3.5-8.64a2.09,2.09,0,0,1,.51,1.43,2,2,0,0,1-.51,1.37,2,2,0,0,1-3,0,2.09,2.09,0,0,1-.49-1.37,2.18,2.18,0,0,1,.49-1.43,2.09,2.09,0,0,1,3,0"/><path class="cls-1" d="M67.85,14.4a7,7,0,0,1,1.63.15c.23,0,.41-.1.56-.43a2.67,2.67,0,0,0,.18-1A2.69,2.69,0,0,0,70,12c-.15-.33-.33-.46-.56-.4s-.83.07-1.63.1l-2.17,0a16.29,16.29,0,0,1-1.86-.13c-.23-.06-.42.06-.57.37A2.74,2.74,0,0,0,63.08,13a2.78,2.78,0,0,0,.17,1.08c.15.33.34.47.57.43.41,0,1-.12,1.79-.14Z"/><path class="cls-1" d="M75.64,10.13A3,3,0,0,0,74.21,10a.69.69,0,0,1-.67-.39,2.14,2.14,0,0,1-.21-1,2,2,0,0,1,.21-.94.55.55,0,0,1,.67-.3,18.76,18.76,0,0,0,2.12.06l1.52,0,.67,0c0,.27,0,.4,0,.4a5.26,5.26,0,0,0,.76-.37A5.64,5.64,0,0,1,80.49,7a15,15,0,0,1,2.4-.15,4.57,4.57,0,0,1,1.93.4,3.06,3.06,0,0,1,1.16,1,4.08,4.08,0,0,1,1.55-1,10.13,10.13,0,0,1,3.24-.4A4.47,4.47,0,0,1,94,8a4.27,4.27,0,0,1,1.25,3.25v9.06a.63.63,0,0,0,.39.67,2.73,2.73,0,0,0,1.33,0,.82.82,0,0,1,.82.34,1.82,1.82,0,0,1,0,1.91.89.89,0,0,1-.82.36c-.92-.06-1.76-.09-2.49-.09-.89,0-1.82,0-2.78.09a.76.76,0,0,1-.73-.4,1.65,1.65,0,0,1-.24-.93,1.45,1.45,0,0,1,.21-.94.66.66,0,0,1,.73-.34.91.91,0,0,0,.58-.08c.14-.08.21-.29.21-.62V11.7a2.36,2.36,0,0,0-.49-1.64,2.13,2.13,0,0,0-1.67-.61,4.09,4.09,0,0,0-2.34.56,2.17,2.17,0,0,0-.85,1.55v8.75c0,.39.08.62.22.7a1.1,1.1,0,0,0,.78,0,.71.71,0,0,1,.79.28,1.33,1.33,0,0,1,.27.9,1.57,1.57,0,0,1-.27,1,.9.9,0,0,1-.79.46c-.64-.06-1.48-.09-2.51-.09a21.75,21.75,0,0,0-2.25.09.9.9,0,0,1-.88-.4,1.65,1.65,0,0,1-.27-1,1.46,1.46,0,0,1,.3-1,.9.9,0,0,1,.92-.28A.9.9,0,0,0,84,21c.2-.09.3-.33.3-.7V11.64a2.41,2.41,0,0,0-.42-1.55,2,2,0,0,0-1.58-.64A3.85,3.85,0,0,0,80,10a3.16,3.16,0,0,0-1.1,1.64v8.67a.67.67,0,0,0,.16.58.84.84,0,0,0,.64.09.67.67,0,0,1,.73.3,1.7,1.7,0,0,1,.24.94,1.75,1.75,0,0,1-.24.94.76.76,0,0,1-.72.42c-.73-.06-1.52-.09-2.34-.09s-1.91,0-3.19.09a.64.64,0,0,1-.67-.39,2.14,2.14,0,0,1-.21-1,2,2,0,0,1,.21-.94.55.55,0,0,1,.67-.3h.09a4.42,4.42,0,0,0,1.3,0,.62.62,0,0,0,.55-.67v-9.5a.74.74,0,0,0-.51-.68"/><path class="cls-1" d="M114.46,9.52a8.83,8.83,0,0,1,2.07,6,8.78,8.78,0,0,1-2.07,5.94,8.92,8.92,0,0,1-12.71,0,8.82,8.82,0,0,1-2.06-5.94,8.87,8.87,0,0,1,2.06-6,8.9,8.9,0,0,1,12.71,0M103.9,11.31a6.46,6.46,0,0,0-1.3,4.18,6.58,6.58,0,0,0,1.3,4.16,5.15,5.15,0,0,0,4.22,1.87,5.09,5.09,0,0,0,4.16-1.87,6.49,6.49,0,0,0,1.34-4.16,6.37,6.37,0,0,0-1.34-4.18,5.65,5.65,0,0,0-8.38,0"/><path class="cls-1" d="M119.63,3.82a1.72,1.72,0,0,0-.91.09.71.71,0,0,1-.73-.39,1.91,1.91,0,0,1-.21-1,2,2,0,0,1,.21-1,.66.66,0,0,1,.73-.31,10.57,10.57,0,0,0,2.19.21,8.47,8.47,0,0,0,2-.21V8.48a5.93,5.93,0,0,1,2-1.2,7.24,7.24,0,0,1,2.51-.43,6.47,6.47,0,0,1,5.46,2.64,9.57,9.57,0,0,1,1.85,6,9.48,9.48,0,0,1-1.85,5.94,6.46,6.46,0,0,1-5.46,2.66,7.11,7.11,0,0,1-2.3-.36,6.49,6.49,0,0,1-2.27-1.34,2.11,2.11,0,0,1-.88,1,2.61,2.61,0,0,1-1.88.25V4.6q0-.66-.48-.78M124,11.27a7.53,7.53,0,0,0-1.12,4.25A7.3,7.3,0,0,0,124,19.7a4,4,0,0,0,6.76,0,7.15,7.15,0,0,0,1.15-4.18,7.39,7.39,0,0,0-1.15-4.25,4,4,0,0,0-6.76,0"/><path class="cls-1" d="M141.43,9.93a5,5,0,0,0-1.33,0,1,1,0,0,1-.91-.36,1.38,1.38,0,0,1-.31-.94,1.41,1.41,0,0,1,.31-1,.92.92,0,0,1,.91-.34,7.16,7.16,0,0,0,2,.13,25.87,25.87,0,0,0,3.27-.13V20.29c0,.49.34.76,1,.82a8.35,8.35,0,0,0,2.19-.15,1.07,1.07,0,0,1,1,.28,1.31,1.31,0,0,1,.36,1,1.39,1.39,0,0,1-.36,1,1.19,1.19,0,0,1-1,.37q-2.61-.06-5.19-.06c-1.71,0-3.24,0-4.58.06a.92.92,0,0,1-.87-.37,1.42,1.42,0,0,1-.31-.94,1.53,1.53,0,0,1,.31-1,.84.84,0,0,1,.87-.34l.28,0a16,16,0,0,0,2.39.09c.75-.06,1.12-.31,1.12-.76V10.42c0-.27-.37-.43-1.12-.49m3.5-8.64a2.09,2.09,0,0,1,.51,1.43,2,2,0,0,1-.51,1.37,2,2,0,0,1-3,0,2,2,0,0,1-.49-1.37,2.12,2.12,0,0,1,.49-1.43,2.09,2.09,0,0,1,3,0"/><path class="cls-1" d="M156.17,3.77a9.86,9.86,0,0,0-2.18.15.88.88,0,0,1-.89-.33,1.61,1.61,0,0,1-.3-1,1.56,1.56,0,0,1,.3-1,.9.9,0,0,1,.89-.34,14.34,14.34,0,0,0,2.6.19c1,0,2.21-.06,3.55-.19V20.67c0,.3.38.48,1.15.52a20.6,20.6,0,0,0,2.4-.16.94.94,0,0,1,1,.31,1.41,1.41,0,0,1,.3.94,1.5,1.5,0,0,1-.3,1,1.07,1.07,0,0,1-1,.39c-1.42-.13-3.28-.18-5.59-.18a40.72,40.72,0,0,0-4.82.18.83.83,0,0,1-.82-.39,1.69,1.69,0,0,1-.27-1,1.5,1.5,0,0,1,.27-.94.7.7,0,0,1,.82-.27,16.34,16.34,0,0,0,2.49.16c1.06,0,1.58-.22,1.58-.52V4.35c0-.34-.39-.54-1.18-.58"/><path class="cls-1" d="M180.4,9.52a9.23,9.23,0,0,1,1.95,6l0,1q-4.4-.09-7-.09-4.25,0-5.46.09A6.76,6.76,0,0,0,171.18,20a4.22,4.22,0,0,0,3.4,1.55,10,10,0,0,0,3.31-.42A6.45,6.45,0,0,0,180,19.64a1.21,1.21,0,0,1,1-.42,1.39,1.39,0,0,1,.91.39,1.41,1.41,0,0,1,.43.88,1.5,1.5,0,0,1-.46,1.09,8.41,8.41,0,0,1-3.22,2,13.68,13.68,0,0,1-4.12.51,7,7,0,0,1-5.82-2.66,9.28,9.28,0,0,1-1.92-5.94,9.34,9.34,0,0,1,1.92-6,7.68,7.68,0,0,1,11.64,0m-9,1.26a5.52,5.52,0,0,0-1.39,3c1.76.06,3.3.09,4.64.09q2.31,0,4.65-.09a5.85,5.85,0,0,0-1.4-3,4.59,4.59,0,0,0-6.5,0"/><path class="cls-2" d="M12.27,6.63A27.22,27.22,0,0,1,15.13,0,20.72,20.72,0,0,0,.8,14.46c-3.08,11,3,22.27,13.64,25.24a19.63,19.63,0,0,0,15.75-2.32,20.4,20.4,0,0,1-2.73-.57C15.35,33.41,8.55,19.9,12.27,6.63"/><path class="cls-3" d="M13.79,15.77C14.67,27.2,27,33.93,27,33.93v0c-2.27-2.84-3-7.65-1.66-12.59,1.84-6.56,6.8-11,11.35-10.29h0C35,6.44,30.19,2.59,25.78,2.22c-5.77-.47-12.87,2.12-12,13.55"/><path class="cls-4" d="M28.12,20.06c-3.44,7,2.46,14.24,2.46,14.24h0c-.51-2.28.42-5.44,2.62-8.2,2.93-3.66,7.05-5.28,9.49-3.85h0a7.1,7.1,0,0,0-4.83-7.3c-3.21-1.16-7.37.27-9.76,5.13"/><path class="cls-5" d="M41.34,33.48c2.41-2.27,2.94-5.61,1.19-7.46s-5.12-1.51-7.52.75-2.94,5.61-1.18,7.47,5.11,1.51,7.51-.76"/><path class="cls-1" d="M81.13,38H77.36l-.82,2h-2l4-9.35H80l3.91,9.35H82Zm-.53-1.49L79.27,33.1l-1.33,3.36Z"/><path class="cls-1" d="M90.21,29.69h1.71V39.91H90.21v-.79a2.18,2.18,0,0,1-1.86,1,3.07,3.07,0,0,1-3.1-3.23,3,3,0,0,1,3-3.23,2.21,2.21,0,0,1,1.95,1ZM87,36.87a1.68,1.68,0,1,0,1.68-1.71A1.66,1.66,0,0,0,87,36.87Z"/><path class="cls-1" d="M98.73,39.91V30.56H100l5.69,6.24V30.56h1.82v9.35h-1.26l-5.69-6.25v6.25Z"/><path class="cls-1" d="M116.22,38.21a3,3,0,0,1-3,1.89,3.17,3.17,0,0,1-2.32-.85,3,3,0,0,1-1-2.37,3.21,3.21,0,0,1,.93-2.38,3.1,3.1,0,0,1,2.28-.86,2.92,2.92,0,0,1,2.37,1,3.65,3.65,0,0,1,.73,2.38v.14h-4.54a1.82,1.82,0,0,0,.29,1,1.42,1.42,0,0,0,1.22.58,1.57,1.57,0,0,0,1.42-.8Zm-1.57-2.14a1.46,1.46,0,0,0-2.88,0Z"/><path class="cls-1" d="M120.19,35.3v4.61h-1.71V35.3h-.67V33.84h.67V31.77h1.71v2.07h1.18V35.3Z"/><path class="cls-1" d="M126.67,39.91h-.85l-3.08-6.07h1.91l1.6,3.5,1.62-3.5h.78l1.63,3.5,1.6-3.5h1.9l-3.08,6.07h-.84l-1.6-3.58Z"/><path class="cls-1" d="M140.82,34.5a3.28,3.28,0,0,1,0,4.75,4,4,0,0,1-4.91,0,3.28,3.28,0,0,1,0-4.75,3.93,3.93,0,0,1,4.91,0Zm-.75,2.38a1.71,1.71,0,1,0-1.71,1.71A1.69,1.69,0,0,0,140.07,36.88Z"/><path class="cls-1" d="M144,33.84h1.71v.91a2,2,0,0,1,.75-.84,1.95,1.95,0,0,1,1.74-.12L148,35.38a1.33,1.33,0,0,0-.8-.22,1.41,1.41,0,0,0-1.14.49,2.07,2.07,0,0,0-.33,1.34v2.92H144Z"/><path class="cls-1" d="M151.66,29.69v6.36l2.27-2.21h2.22L153.3,36.5l3.07,3.41H154.1l-2.25-2.6-.19.17v2.43H150V29.69Z"/></g></g></svg>