<svg version="1.1"
   xmlns="http://www.w3.org/2000/svg" xmlns:xlink="http://www.w3.org/1999/xlink" xmlns:a="http://ns.adobe.com/AdobeSVGViewerExtensions/3.0/"
   x="0px" y="0px" width="35px" height="35px" viewBox="0 0 35 35" style="enable-background:new 0 0 35 35;" xml:space="preserve">
<style type="text/css">
  .st0{fill-rule:evenodd;clip-rule:evenodd;fill:#00C300;}
  .st1{fill:#FFFFFF;}
</style>
<defs>
</defs>
<g>
  <g>
    <path class="st0" d="M4,0h27c2.2,0,4,1.8,4,4v27c0,2.2-1.8,4-4,4H4c-2.2,0-4-1.8-4-4V4C0,1.8,1.8,0,4,0z"/>
  </g>
  <g>
    <path class="st1" d="M30.2,16.7c0-5.6-5.7-10.2-12.7-10.2c-7,0-12.7,4.6-12.7,10.2c0,5,4.5,9.2,10.7,10c0.4,0.1,1,0.3,1.1,0.6
      c0.1,0.3,0.1,0.8,0,1.1c0,0-0.1,0.9-0.2,1.1c-0.1,0.3-0.3,1.2,1.1,0.7c1.4-0.6,7.3-4.2,10-7.3h0C29.4,21,30.2,19,30.2,16.7z
       M13.1,19.6c0,0.1-0.1,0.2-0.2,0.2H9.4h0c-0.1,0-0.1,0-0.2-0.1c0,0,0,0,0,0c0,0,0,0,0,0c0,0-0.1-0.1-0.1-0.2v0v-5.3
      c0-0.1,0.1-0.2,0.2-0.2h0.9c0.1,0,0.2,0.1,0.2,0.2v4.2h2.4c0.1,0,0.2,0.1,0.2,0.2V19.6z M15.2,19.6c0,0.1-0.1,0.2-0.2,0.2h-0.9
      c-0.1,0-0.2-0.1-0.2-0.2v-5.3c0-0.1,0.1-0.2,0.2-0.2H15c0.1,0,0.2,0.1,0.2,0.2V19.6z M21.2,19.6c0,0.1-0.1,0.2-0.2,0.2h-0.9
      c0,0,0,0-0.1,0c0,0,0,0,0,0c0,0,0,0,0,0c0,0,0,0,0,0c0,0,0,0,0,0c0,0,0,0,0,0c0,0,0,0,0,0c0,0,0,0,0,0c0,0,0,0,0,0
      c0,0,0,0-0.1-0.1l-2.5-3.3v3.2c0,0.1-0.1,0.2-0.2,0.2h-0.9c-0.1,0-0.2-0.1-0.2-0.2v-5.3c0-0.1,0.1-0.2,0.2-0.2h0.9c0,0,0,0,0,0
      c0,0,0,0,0,0c0,0,0,0,0,0c0,0,0,0,0,0c0,0,0,0,0,0c0,0,0,0,0,0c0,0,0,0,0,0c0,0,0,0,0,0c0,0,0,0,0,0c0,0,0,0,0,0c0,0,0,0,0,0
      c0,0,0,0,0,0c0,0,0,0,0,0c0,0,0,0,0,0c0,0,0,0,0,0c0,0,0,0,0,0c0,0,0,0,0,0c0,0,0,0,0,0c0,0,0,0,0,0l2.5,3.3v-3.2
      c0-0.1,0.1-0.2,0.2-0.2H21c0.1,0,0.2,0.1,0.2,0.2V19.6z M26,15.2c0,0.1-0.1,0.2-0.2,0.2h-2.4v0.9h2.4c0.1,0,0.2,0.1,0.2,0.2v0.9
      c0,0.1-0.1,0.2-0.2,0.2h-2.4v0.9h2.4c0.1,0,0.2,0.1,0.2,0.2v0.9c0,0.1-0.1,0.2-0.2,0.2h-3.5h0c-0.1,0-0.1,0-0.2-0.1c0,0,0,0,0,0
      c0,0,0,0,0,0c0,0-0.1-0.1-0.1-0.2v0v-5.3v0c0-0.1,0-0.1,0.1-0.2c0,0,0,0,0,0c0,0,0,0,0,0c0,0,0.1-0.1,0.2-0.1h0h3.5
      c0.1,0,0.2,0.1,0.2,0.2V15.2z"/>
  </g>
</g>
</svg>
