<svg class="sw-FooterHeading_Svg" xmlns="http://www.w3.org/2000/svg" width="172" height="50" viewBox="0 0 172 50"><title>aibo</title><path class="sw-FooterHeading_SvgEl" d="M54.11 42.11l-4.83-19c-1.74-6.36-3.7-10.93-6.86-14.49a23.28 23.28 0 0 0-17.49-7.6 23.93 23.93 0 1 0 0 47.87 20.89 20.89 0 0 0 18.73-11l1.67 6.47a4.54 4.54 0 1 0 8.78-2.28zM24.94 39A14.08 14.08 0 1 1 39 25a14.07 14.07 0 0 1-14.06 14z"></path><ellipse class="sw-FooterHeading_SvgEl" cx="57.81" cy="5.63" rx="4.61" ry="4.61"></ellipse><path class="sw-FooterHeading_SvgEl" d="M147 1a24 24 0 0 0-23.3 18.57 24 24 0 0 0-23.32-18.5 23.06 23.06 0 0 0-20.87 13L76.85 3.39a3.13 3.13 0 1 0-6.09 1.49S73.31 15.65 76 26.25C78.92 37.64 82.92 42 87 45a23.29 23.29 0 0 0 13.33 4 24 24 0 0 0 23.34-18.53A24 24 0 1 0 147 1zm-46.7 41.77a17.74 17.74 0 1 1 17.72-17.74 17.73 17.73 0 0 1-17.67 17.76zm46.7-8.59a9.18 9.18 0 1 1 9.22-9.18 9.18 9.18 0 0 1-9.22 9.18zM71.41 42.79a4 4 0 1 1-7.76 2L57.3 19.85a4 4 0 1 1 7.76-2z"></path></svg>