<svg xmlns="http://www.w3.org/2000/svg" xmlns:xlink="http://www.w3.org/1999/xlink" width="251" height="150" viewBox="0 0 180.7 108"><style/><g id="_x30_3_visa"><defs><path id="SVGID_1_" d="M55.1 27.7L40.5 64.5l-5.9-31.3c-.7-3.5-3.4-5.5-6.5-5.5H4.3L4 29.2c4.9 1.1 10.5 2.8 13.8 4.6 2.1 1.1 2.7 2.1 3.3 4.8l11.2 43.2h14.8l22.7-54.2H55.1zm20.7 0L64.2 81.8h14l11.6-54.2h-14zm80.4 14.6l4.2 20.3h-11.6l7.4-20.3zm-2.1-14.6c-2.7 0-5 1.6-6 4l-21 50.2h14.7l2.9-8.1h18l1.7 8.1h13l-11.3-54.2h-12zM93.6 44.6c-.1 7.8 7 12.1 12.3 14.7 5.5 2.7 7.3 4.4 7.3 6.7 0 3.6-4.4 5.2-8.4 5.3-7 .1-11.1-1.9-14.4-3.4l-2.5 11.9c3.3 1.5 9.3 2.8 15.6 2.9 14.7 0 24.3-7.3 24.4-18.5.1-14.3-19.8-15.1-19.6-21.5 0-1.9 1.9-4 5.9-4.5 2-.3 7.5-.5 13.8 2.4l2.5-11.5c-3.4-1.2-7.7-2.4-13.1-2.4-13.9 0-23.7 7.3-23.8 17.9"/></defs><clipPath id="SVGID_2_"><use xlink:href="#SVGID_1_" overflow="visible"/></clipPath><linearGradient id="SVGID_3_" gradientUnits="userSpaceOnUse" x1="-213.165" y1="1028.562" x2="-211.795" y2="1028.562" gradientTransform="matrix(126.5456 0 0 -126.5456 26979.084 130214.602)"><stop offset="0" stop-color="#241f5d"/><stop offset="1" stop-color="#034ea1"/></linearGradient><path clip-path="url(#SVGID_2_)" fill="url(#SVGID_3_)" d="M4 26.7h173.4v56H4z"/></g></svg>