<?xml version="1.0" encoding="UTF-8"?>
<svg width="32px" height="32px" viewBox="0 0 32 32" version="1.1" xmlns="http://www.w3.org/2000/svg" xmlns:xlink="http://www.w3.org/1999/xlink">
    <!-- Generator: Sketch 57 (83077) - https://sketch.com -->
    <title>mdpi/logo_edy</title>
    <desc>Created with Sketch.</desc>
    <g id="Page-1" stroke="none" stroke-width="1" fill="none" fill-rule="evenodd">
        <g id="silvercard_pc" transform="translate(-1080.000000, -1049.000000)">
            <g id="01_card_info" transform="translate(196.000000, 902.000000)">
                <g id="table" transform="translate(0.000000, 78.000000)">
                    <g id="point_edy" transform="translate(707.000000, 69.000000)">
                        <g id="logo_edy" transform="translate(177.000000, 0.000000)">
                            <rect id="Rectangle" x="0" y="0" width="32" height="32"></rect>
                            <g id="Group-4" transform="translate(8.000000, 3.000000)">
                                <path d="M15.7701161,19.0486754 L13.8577183,24.7217004 C13.6227175,25.4202133 13.0523644,25.8549295 12.3729794,25.8549295 C11.8947211,25.8549295 11.4920442,25.6672404 11.1482233,25.2753079 L11.9114464,24.4576888 C12.0289467,24.6023792 12.1462354,24.6621473 12.297398,24.6621473 C12.4650742,24.6621473 12.6077684,24.5430411 12.6664127,24.3383676 L12.700075,24.2278611 L10.8461097,19.0486754 L12.1629607,19.0486754 L13.3040904,22.4303031 L14.4530535,19.0486754 L15.7701161,19.0486754 Z" id="Fill-586" fill="#0E0046"></path>
                                <path d="M6.18651085,21.7317903 C6.18651085,22.6347616 6.73167022,23.3588586 7.41105523,23.3588586 C8.11605745,23.3588586 8.62776626,22.685715 8.62776626,21.74039 C8.62776626,20.7862502 8.11605745,20.1133216 7.40279845,20.1133216 C6.72341344,20.1133216 6.18651085,20.8290339 6.18651085,21.7317903 L6.18651085,21.7317903 Z M8.62776626,23.9294506 C8.29199043,24.3383676 7.85586294,24.5514258 7.32742884,24.5514258 C6.00210937,24.5514258 4.9283042,23.2823211 4.9283042,21.7317903 C4.9283042,20.1814744 6.03555993,18.9209694 7.39432996,18.9209694 C7.90625048,18.9209694 8.30871571,19.1252129 8.62776626,19.5425147 L8.62776626,17.2683168 L9.88597291,17.2683168 L9.88597291,24.4151201 L8.79544246,24.4151201 L8.62776626,23.9294506 Z" id="Fill-588" fill="#0E0046"></path>
                                <polygon id="Fill-590" fill="#0E0046" points="1.25820665 18.9038989 1.25820665 20.3093094 3.72444412 20.3093094 3.72444412 21.5018765 1.25820665 21.5018765 1.25820665 23.222467 4.03481446 23.222467 4.03481446 24.4150342 -3.04201109e-14 24.4150342 -3.04201109e-14 17.7113318 4.03481446 17.7113318 4.03481446 18.9038989"></polygon>
                                <polygon id="Fill-592" fill="#BF0000" points="3.04836182 16.6921351 0.845494545 14.8152446 16.2928763 14.8152446"></polygon>
                                <path d="M5.55717464,2.54551927 L7.19434645,2.54551927 C8.320868,2.54551927 9.24224026,3.47622475 9.24224026,4.6223534 C9.24224026,5.77149195 8.320868,6.70155245 7.19434645,6.70155245 L5.55717464,6.70155245 L5.55717464,2.54551927 Z M5.55717464,13.4071898 L5.55717464,9.24922165 L7.33153606,9.24922165 L10.4034826,13.4071898 L13.544024,13.4071898 L9.83185922,8.38989391 C10.9888674,7.54669065 11.7484914,6.17546414 11.7484914,4.6223534 C11.7484914,2.0714593 9.70610207,-4.19220214e-13 7.19434645,-4.19220214e-13 L3.04838299,-4.19220214e-13 L3.04838299,13.4071898 L5.55717464,13.4071898 Z" id="Fill-594" fill="#BF0000"></path>
                            </g>
                        </g>
                    </g>
                </g>
            </g>
        </g>
    </g>
</svg>