<?xml version="1.0" encoding="UTF-8"?>
<svg width="32px" height="32px" viewBox="0 0 32 32" version="1.1" xmlns="http://www.w3.org/2000/svg" xmlns:xlink="http://www.w3.org/1999/xlink">
    <!-- Generator: Sketch 57 (83077) - https://sketch.com -->
    <title>mdpi/loigo_point</title>
    <desc>Created with Sketch.</desc>
    <g id="Page-1" stroke="none" stroke-width="1" fill="none" fill-rule="evenodd">
        <g id="silvercard_pc" transform="translate(-903.000000, -1049.000000)">
            <g id="01_card_info" transform="translate(196.000000, 902.000000)">
                <g id="table" transform="translate(0.000000, 78.000000)">
                    <g id="point_edy" transform="translate(707.000000, 69.000000)">
                        <g id="loigo_point">
                            <rect id="Rectangle" x="0" y="0" width="32" height="32"></rect>
                            <g id="Group" transform="translate(3.000000, 2.000000)">
                                <polygon id="Fill-6" fill="#000000" points="24.1867163 21.7509416 24.1867163 27.0176512 22.9311329 27.0176512 22.9311329 21.7509416 21.1327996 21.7509416 21.1327996 20.6107695 25.9861329 20.6107695 25.9861329 21.7509416"></polygon>
                                <polygon id="Fill-8" fill="#000000" points="16.4773914 20.6112964 18.8217247 24.5355114 18.8217247 20.6112964 20.0762247 20.6112964 20.0762247 27.018178 18.8217247 27.018178 16.4773914 22.9063932 16.4773914 27.018178 15.2228914 27.018178 15.2228914 20.6112964"></polygon>
                                <polygon id="Fill-10" fill="#000000" points="12.3119748 27.0176512 13.5664748 27.0176512 13.5664748 20.6107695 12.3119748 20.6107695"></polygon>
                                <path d="M6.71894155,23.81832 C6.71894155,25.1692447 7.30502488,26.0090942 8.24319153,26.0090942 C9.18027484,26.0090942 9.76635817,25.1618684 9.76635817,23.8098899 C9.76635817,22.4189222 9.20519151,21.6201695 8.23344153,21.6201695 C7.28119154,21.6201695 6.71894155,22.4262985 6.71894155,23.81832 M11.1053581,23.81832 C11.1053581,25.8130942 9.9591915,27.1482124 8.24319153,27.1482124 C6.52610822,27.1482124 5.37994158,25.8130942 5.37994158,23.81832 C5.37994158,21.8161695 6.52610822,20.4810513 8.25944153,20.4810513 C9.9591915,20.4810513 11.1053581,21.831976 11.1053581,23.81832" id="Fill-12" fill="#000000"></path>
                                <path d="M2.30316663,23.8111544 C2.87083328,23.8111544 3.31608328,23.3538211 3.31608328,22.7689824 C3.31608328,22.1915201 2.87949995,21.7510469 2.30316663,21.7510469 L1.25558331,21.7510469 L1.25558331,23.8111544 L2.30316663,23.8111544 Z M2.38549996,20.6108749 C3.67574994,20.6108749 4.65508325,21.5476706 4.65508325,22.7774125 C4.65508325,24.0061007 3.67574994,24.9502727 2.38549996,24.9502727 L1.25558331,24.9502727 L1.25558331,27.0177565 L1.24344979e-14,27.0177565 L1.24344979e-14,20.6108749 L2.38549996,20.6108749 Z" id="Fill-13" fill="#000000"></path>
                                <polygon id="Fill-14" fill="#BF0000" points="7.40555821 18.4718405 4.85972492 16.3948728 22.7065579 16.3948728"></polygon>
                                <path d="M10.3043415,2.81670963 L12.1947581,2.81670963 C13.4969248,2.81670963 14.5618414,3.84729026 14.5618414,5.11496765 C14.5618414,6.38686011 13.4969248,7.41638697 12.1947581,7.41638697 L10.3043415,7.41638697 L10.3043415,2.81670963 Z M10.3043415,14.836989 L10.3043415,10.2352041 L12.3540081,10.2352041 L15.9030081,14.836989 L19.5321747,14.836989 L15.2432581,9.28470952 C16.5790081,8.35107513 17.4575914,6.8336558 17.4575914,5.11496765 C17.4575914,2.29193544 15.0970081,-3.64153152e-14 12.1947581,-3.64153152e-14 L7.40534154,-3.64153152e-14 L7.40534154,14.836989 L10.3043415,14.836989 Z" id="Fill-15" fill="#BF0000"></path>
                            </g>
                        </g>
                    </g>
                </g>
            </g>
        </g>
    </g>
</svg>