<?xml version="1.0" encoding="UTF-8"?>
<svg width="98px" height="37px" viewBox="0 0 98 37" version="1.1" xmlns="http://www.w3.org/2000/svg" xmlns:xlink="http://www.w3.org/1999/xlink">
    <title>NIM Stack Light</title>
    <g id="Page-1" stroke="none" stroke-width="1" fill="none" fill-rule="evenodd">
        <g id="Artboard" transform="translate(-184.000000, -294.000000)" fill-rule="nonzero">
            <g id="NIM-Stack-Light" transform="translate(184.000000, 294.000000)">
                <g id="Group" transform="translate(0.000000, 0.034560)">
                    <path d="M13.8875979,7.59436031 C10.8462343,13.006064 5.89348817,17.0868896 -2.00728323e-13,19.0370757 L-2.00728323e-13,35.9503916 L13.8824804,35.9503916 L13.8875979,7.59436031 Z" id="Path" fill="#000000"></path>
                    <path d="M-1.77635684e-13,7.47921671 L-1.77635684e-13,11.098564 C4.47992942,8.8693394 7.79203481,4.82990256 9.10018277,3.8191672e-14 L5.80963446,0.00255874674 C4.774254,3.0800214 2.7262796,5.71564403 -1.77635684e-13,7.47921671 Z" id="Path" fill="#00A0DF"></path>
                    <path d="M5.32907052e-15,4.87569191 C1.57741353,3.57394725 2.80478642,1.89889769 3.57073107,0.00255874674 L5.32907052e-15,0.00255874674 L5.32907052e-15,4.87569191 Z" id="Path" fill="#000000"></path>
                    <path d="M11.2687206,-5.86197757e-14 C9.83461458,6.00105519 5.66015695,10.9774182 -2.0250468e-13,13.4334204 L-2.0250468e-13,16.7981723 C7.41732065,14.0926626 12.9011062,7.73429954 14.487624,-5.86197757e-14 L11.2687206,-5.86197757e-14 Z" id="Path" fill="#00A0DF"></path>
                </g>
                <polygon id="Path" fill="#000000" points="25.0168668 8.64090492 19.8712272 1.8013749 19.8712272 8.64090492 18.6571018 8.64090492 18.6571018 0.156100745 20.0644125 0.156100745 24.8300783 6.50051328 24.8300783 0.156100745 26.0442037 0.156100745 26.0442037 8.64090492"></polygon>
                <polygon id="Path" fill="#000000" points="28.1372585 8.64090492 28.1372585 0.156100745 29.3641775 0.156100745 29.3641775 8.64090492"></polygon>
                <path d="M37.2886162,0.442680379 L37.2886162,1.61714513 C36.1909138,1.27811119 35.4603916,1.10539578 34.5853003,1.10539578 C33.4773629,1.10539578 32.3540731,1.38174043 32.3540731,2.32207986 C32.3540731,2.94897281 32.8888512,3.30080048 33.5937859,3.49654461 L35.7482507,4.11064383 C36.7922193,4.39850283 37.6532376,5.03818952 37.6532376,6.33035662 C37.6532376,7.90910336 36.335483,8.79698847 34.0492428,8.79698847 C33.0045586,8.79563564 31.9691537,8.6008737 30.9953786,8.22254983 L30.9953786,6.98411641 C31.986893,7.30907725 32.9272324,7.67497803 34.0492428,7.67497803 C35.4731854,7.67497803 36.3853786,7.16322868 36.3853786,6.37001719 C36.3853786,5.6778762 35.8518799,5.32476915 35.1226371,5.1303044 L33.1242559,4.58145323 C32.0406266,4.29487359 31.1118016,3.68589187 31.1118016,2.32335923 C31.1118016,0.660173852 32.693107,-3.46389584e-14 34.5853003,-3.46389584e-14 C35.5045973,-0.00184588341 36.4179251,0.147709926 37.2886162,0.442680379 Z" id="Path" fill="#000000"></path>
                <path d="M45.1874674,0.442680379 L45.1874674,1.61714513 C44.0910444,1.27811119 43.3592428,1.10539578 42.4854308,1.10539578 C41.3749347,1.10539578 40.2516449,1.38174043 40.2516449,2.32207986 C40.2516449,2.94897281 40.7877023,3.30080048 41.4926371,3.49654461 L43.6471018,4.11064383 C44.6923499,4.39850283 45.5520888,5.03818952 45.5520888,6.33035662 C45.5520888,7.90910336 44.2343342,8.79698847 41.9493734,8.79698847 C40.9042755,8.79561664 39.8684547,8.60085805 38.8942298,8.22254983 L38.8942298,6.98411641 C39.8870235,7.30907725 40.8260836,7.67497803 41.9493734,7.67497803 C43.3720366,7.67497803 44.2880679,7.16322868 44.2880679,6.37001719 C44.2880679,5.6778762 43.7520104,5.32476915 43.0202089,5.1303044 L41.0269452,4.58145323 C39.9445953,4.29487359 39.0170496,3.68589187 39.0170496,2.32335923 C39.0170496,0.660173852 40.5970757,1.02119599e-05 42.4905483,1.02119599e-05 C43.4077011,-0.00116735551 44.3188145,0.148379732 45.1874674,0.442680379 Z" id="Path" fill="#000000"></path>
                <path d="M53.6479634,8.64090492 C53.4368668,8.01401197 53.1809922,7.25790231 52.8637076,6.44805897 L48.242611,6.44805897 C47.903577,7.30907725 47.6297911,8.08053939 47.4596345,8.64090492 L46.1444386,8.64090492 C47.423812,4.76440362 49.2520366,1.06957333 49.8136815,0.156100745 L51.2619321,0.156100745 C51.6137598,0.71646628 53.4291906,4.1119232 54.9298956,8.64090492 L53.6479634,8.64090492 Z M52.4325587,5.35163599 C51.8325326,3.84965166 51.1403916,2.30928612 50.5544386,1.26531746 C50.0183812,2.27090492 49.3006527,3.84965166 48.6865535,5.35163599 L52.4325587,5.35163599 Z" id="Shape" fill="#000000"></path>
                <polygon id="Path" fill="#000000" points="62.2645431 8.64090492 57.1214621 1.8013749 57.1214621 8.64090492 55.9073368 8.64090492 55.9073368 0.156100745 57.3146475 0.156100745 62.0790339 6.50051328 62.0790339 0.156100745 63.2944386 0.156100745 63.2944386 8.64090492"></polygon>
                <path d="M38.3581723,31.8525759 C38.3581723,34.5558919 36.5555352,36.2651347 33.9046736,36.2651347 C31.0900522,36.2651347 29.3257963,34.5149519 29.3257963,31.8525759 C29.3257963,29.1902 31.0849347,27.4720015 33.8931593,27.4720015 C36.7525587,27.4720015 38.3581723,29.2285812 38.3581723,31.8525759 Z M30.6154047,31.8525759 C30.6154047,33.8995733 31.9600261,35.0893906 33.9046736,35.0893906 C35.7469713,35.0893906 37.0903133,33.9008527 37.0903133,31.8525759 C37.0903133,29.7109049 35.7712794,28.6144819 33.8918799,28.6144819 C31.9728198,28.6144819 30.6154047,29.6725237 30.6154047,31.8525759 L30.6154047,31.8525759 Z" id="Shape" fill="#000000"></path>
                <path d="M43.5856919,27.6229676 C45.1145431,27.6229676 46.6011749,28.1180851 46.6011749,29.7109049 C46.6011749,30.7036987 46.08047,31.3433853 45.3090078,31.6683462 L45.3090078,31.6824193 C46.1060574,31.938294 46.8903133,32.5562313 46.8903133,33.8240903 C46.8903133,35.625448 45.2987728,36.1077718 43.2735248,36.1077718 L39.9151697,36.1077718 L39.9151697,27.6229676 L43.5856919,27.6229676 Z M41.1420888,31.225683 L43.3093473,31.225683 C44.5631332,31.225683 45.3205222,30.8341947 45.3205222,29.9194428 C45.3205222,28.8358135 44.2113055,28.744978 43.3093473,28.744978 L41.1420888,28.744978 L41.1420888,31.225683 Z M41.1420888,34.9857613 L43.2018799,34.9857613 C44.5337076,34.9857613 45.6045431,34.7900172 45.6045431,33.6795211 C45.6045431,32.7008005 44.7025849,32.3093122 43.2530548,32.3093122 L41.1420888,32.3093122 L41.1420888,34.9857613 Z" id="Shape" fill="#000000"></path>
                <polygon id="Path" fill="#000000" points="48.6315405 36.1077718 48.6315405 27.6229676 49.8546214 27.6229676 49.8546214 36.1077718"></polygon>
                <polygon id="Path" fill="#000000" points="58.0720366 34.9857613 58.0720366 36.1077718 51.9771018 36.1077718 51.9771018 27.6229676 53.2027415 27.6229676 53.2027415 34.9857613"></polygon>
                <polygon id="Path" fill="#000000" points="59.3885117 36.1077718 59.3885117 27.6229676 60.6154308 27.6229676 60.6154308 36.1077718"></polygon>
                <polygon id="Path" fill="#000000" points="66.3585379 28.7513749 66.3585379 36.1077718 65.1303394 36.1077718 65.1303394 28.7513749 61.9191123 28.7513749 61.9191123 27.6293645 69.569765 27.6293645 69.569765 28.7513749"></polygon>
                <path d="M77.8652219,27.6229676 C76.652376,29.9463096 75.0071018,32.5063357 74.45953,33.2368579 L74.45953,36.1077718 L73.2313316,36.1077718 L73.2313316,33.2368579 C72.6696867,32.493542 71.0640731,29.9731765 69.8243603,27.6229676 L71.2598172,27.6229676 C72.0314449,29.1700148 72.8948558,30.6695558 73.8454308,32.1135681 C74.7913624,30.6742149 75.6414282,29.1740988 76.3901044,27.6229676 L77.8652219,27.6229676 Z" id="Path" fill="#000000"></path>
                <path d="M27.0817755,27.6229676 C27.4860574,29.0980851 28.0860836,30.8994428 28.7449608,36.1077718 L27.5039687,36.1077718 C26.9691906,32.1417143 26.5124543,30.1676412 26.2898433,29.2810355 C25.4812794,31.225683 24.6586423,33.261166 23.9281201,35.2070929 L23.0658225,35.2070929 C21.7992428,31.8525759 20.9241514,29.65973 20.7296867,29.3462835 C20.5070757,30.2418449 20.0362663,32.2171974 19.5014883,36.1077718 L18.2477023,36.1077718 C18.9526371,30.9518971 19.5411488,29.1377457 19.9582245,27.6229676 L21.196658,27.6229676 C21.9028721,29.1889206 22.6730548,31.0299389 23.49953,33.1703305 C24.5972324,30.4555002 25.2497128,28.9663096 25.8510183,27.6229676 L27.0817755,27.6229676 Z" id="Path" fill="#000000"></path>
                <polygon id="Path" fill="#000000" points="27.8289295 14.140931 27.8289295 20.4853436 23.0632637 14.140931 21.6533943 14.140931 21.6533943 22.6270146 22.8662402 22.6270146 22.8662402 15.7862052 28.0106005 22.6270146 29.0404961 22.6270146 29.0404961 14.140931"></polygon>
                <polygon id="Path" fill="#000000" points="34.7132376 15.2629415 34.7132376 22.6257352 33.4786423 22.6257352 33.4786423 15.2629415 30.2674151 15.2629415 30.2674151 14.140931 37.9167885 14.140931 37.9167885 15.2629415"></polygon>
                <polygon id="Path" fill="#000000" points="40.4601828 15.2629415 40.4601828 17.7039859 44.847154 17.7039859 44.847154 18.8144819 40.4601828 18.8144819 40.4601828 21.501166 45.2258486 21.501166 45.2258486 22.6231765 39.2358225 22.6231765 39.2358225 14.140931 45.2284073 14.140931 45.2284073 15.2629415"></polygon>
                <polygon id="Path" fill="#000000" points="53.0223499 21.5037248 53.0223499 22.6257352 46.9274151 22.6257352 46.9274151 14.140931 48.1530548 14.140931 48.1530548 21.5037248"></polygon>
                <polygon id="Path" fill="#000000" points="60.4222454 21.5037248 60.4222454 22.6257352 54.324752 22.6257352 54.324752 14.140931 55.5542298 14.140931 55.5542298 21.5037248"></polygon>
                <polygon id="Path" fill="#000000" points="61.7259269 22.6257352 61.7259269 14.140931 62.952846 14.140931 62.952846 22.6257352"></polygon>
                <polygon id="Path" fill="#000000" points="18.6571018 22.6257352 18.6571018 14.140931 19.8853003 14.140931 19.8853003 22.6257352"></polygon>
                <path d="M72.328094,14.5068318 L72.328094,15.7017665 C71.1945692,15.2834114 70.464047,15.1273279 69.4584595,15.1273279 C67.4869452,15.1273279 65.8135248,16.1853697 65.8135248,18.4165968 C65.8135248,20.754012 67.7325849,21.6291034 69.549295,21.6291034 C70.0868837,21.6407562 70.6233438,21.5748297 71.1421149,21.4333592 L71.1421149,18.4613749 L72.3715927,18.4613749 L72.3715927,22.2611138 C71.4451182,22.6262185 70.4553464,22.8036468 69.4597389,22.7830981 C67.1082507,22.7830981 64.5239164,21.5945603 64.5239164,18.4613749 C64.5239164,15.4203044 66.8485379,13.9835681 69.4725326,13.9835681 C70.4464989,14.0016363 71.4110044,14.1783758 72.328094,14.5068318 L72.328094,14.5068318 Z" id="Path" fill="#000000"></path>
                <polygon id="Path" fill="#000000" points="75.5546736 15.2629415 75.5546736 17.7039859 79.9429243 17.7039859 79.9429243 18.8144819 75.5546736 18.8144819 75.5546736 21.501166 80.3203394 21.501166 80.3203394 22.6231765 74.3277546 22.6231765 74.3277546 14.140931 80.3203394 14.140931 80.3203394 15.2629415"></polygon>
                <polygon id="Path" fill="#000000" points="88.210235 22.6257352 83.0658747 15.7862052 83.0658747 22.6257352 81.8491906 22.6257352 81.8491906 14.140931 83.2565013 14.140931 88.0221671 20.4853436 88.0221671 14.140931 89.2362924 14.140931 89.2362924 22.6257352"></polygon>
                <polygon id="Path" fill="#000000" points="94.706893 15.2629415 94.706893 22.6257352 93.4812533 22.6257352 93.4812533 15.2629415 90.2700261 15.2629415 90.2700261 14.140931 97.9193995 14.140931 97.9193995 15.2629415"></polygon>
            </g>
        </g>
    </g>
</svg>