<svg width="144" height="34" viewBox="0 0 144 34" fill="none" xmlns="http://www.w3.org/2000/svg">
<g clip-path="url(#clip0_6732_1012)">
<path d="M77.2837 30.8309L79.8998 9.57132H85.467L82.8509 30.8309H77.2837V30.8309ZM99.4752 23.8898L100.429 16.1789L100.442 16.0762H107.491L106.035 19.9894H111.718L114.282 11.6626H100.996L101.511 7.50566H95.9957L95.4802 11.6626H91.6141L91.0084 16.5253H94.8746L93.9725 23.877C93.4312 28.0853 95.7638 30.8566 100.248 30.8566H111.151L112.646 26.0325L101.821 26.0453C100.004 26.0196 99.2948 25.5449 99.4752 23.8898ZM54.4607 9.57132L52.9529 14.4725C50.2853 23.1842 44.9887 25.9683 37.8364 26.2506L39.3055 31.0234C48.2234 30.3691 55.1051 25.9555 58.1464 16.0377L60.1439 9.55849H54.4607V9.57132V9.57132ZM67.9793 9.57132L61.4584 30.8309H67.1803L73.7011 9.57132H67.9793ZM123.974 9.57132L117.453 30.8309H123.162L129.695 9.57132H123.974ZM135.559 25.9683L140.598 9.57132H134.876L128.342 30.8309H142.57L143.304 28.3675L144 25.9683H135.559ZM91.5239 0L90.9827 4.42642H96.5112L97.0525 0H91.5239ZM83.2246 0L82.6834 4.42642H88.2119L88.7532 0H83.2246Z" fill="#00AA14"/>
<path d="M30.0011 3.18188H0V34H30.9547V3.18188H30.0011ZM27.3206 5.90189L18.0548 15.3064C14.382 19.0015 9.48488 21.234 4.45892 21.5291H2.71917V15.563C7.26959 15.5605 11.6228 13.718 14.7815 10.4566L19.2017 5.90189H27.3206ZM15.4129 5.90189L12.8226 8.57057C10.1782 11.2957 6.53761 12.8366 2.73206 12.843V5.90189H15.4129ZM2.73206 24.3004H3.47951C3.82746 24.3004 4.18829 24.2876 4.53624 24.2619H25.0911L18.2481 31.0876C18.1836 31.1517 18.1321 31.2159 18.0677 31.28H2.73206V24.3004V24.3004ZM21.908 31.28L28.2227 24.9932V31.28H21.908ZM28.2098 21.5419H13.8794C16.2248 20.5026 18.2867 18.963 20.0136 17.2309L20.31 16.9359H28.2227L28.2098 21.5419ZM28.2098 14.203H22.9776L28.2098 8.89132V14.203Z" fill="#00AA14"/>
</g>
<defs>
<clipPath id="clip0_6732_1012">
<rect width="144" height="34" fill="white"/>
</clipPath>
</defs>
</svg>
