<svg width="148" height="38" viewBox="0 0 148 38" fill="none" xmlns="http://www.w3.org/2000/svg">
<g clip-path="url(#clip0_6732_1016)" filter="url(#filter0_d_6732_1016)">
<path d="M79.2837 31.8309L81.8998 10.5713H87.467L84.8509 31.8309H79.2837V31.8309ZM101.475 24.8898L102.429 17.1789L102.442 17.0762H109.491L108.035 20.9894H113.718L116.282 12.6626H102.996L103.511 8.50566H97.9957L97.4802 12.6626H93.6141L93.0084 17.5253H96.8746L95.9725 24.877C95.4312 29.0853 97.7638 31.8566 102.248 31.8566H113.151L114.646 27.0325L103.821 27.0453C102.004 27.0196 101.295 26.5449 101.475 24.8898ZM56.4607 10.5713L54.9529 15.4725C52.2853 24.1842 46.9887 26.9683 39.8364 27.2506L41.3055 32.0234C50.2234 31.3691 57.1051 26.9555 60.1464 17.0377L62.1439 10.5585H56.4607V10.5713V10.5713ZM69.9793 10.5713L63.4584 31.8309H69.1803L75.7011 10.5713H69.9793ZM125.974 10.5713L119.453 31.8309H125.162L131.695 10.5713H125.974ZM137.559 26.9683L142.598 10.5713H136.876L130.342 31.8309H144.57L145.304 29.3675L146 26.9683H137.559ZM93.5239 1L92.9827 5.42642H98.5112L99.0525 1H93.5239ZM85.2246 1L84.6834 5.42642H90.2119L90.7532 1H85.2246Z" fill="white"/>
<path d="M32.0011 4.18188H2V35H32.9547V4.18188H32.0011ZM29.3206 6.90189L20.0548 16.3064C16.382 20.0015 11.4849 22.234 6.45892 22.5291H4.71917V16.563C9.26959 16.5605 13.6228 14.718 16.7815 11.4566L21.2017 6.90189H29.3206ZM17.4129 6.90189L14.8226 9.57057C12.1782 12.2957 8.53761 13.8366 4.73206 13.843V6.90189H17.4129ZM4.73206 25.3004H5.47951C5.82746 25.3004 6.18829 25.2876 6.53624 25.2619H27.0911L20.2481 32.0876C20.1836 32.1517 20.1321 32.2159 20.0677 32.28H4.73206V25.3004V25.3004ZM23.908 32.28L30.2227 25.9932V32.28H23.908ZM30.2098 22.5419H15.8794C18.2248 21.5026 20.2867 19.963 22.0136 18.2309L22.31 17.9359H30.2227L30.2098 22.5419ZM30.2098 15.203H24.9776L30.2098 9.89132V15.203Z" fill="white"/>
</g>
<defs>
<filter id="filter0_d_6732_1016" x="0" y="0" width="148" height="38" filterUnits="userSpaceOnUse" color-interpolation-filters="sRGB">
<feFlood flood-opacity="0" result="BackgroundImageFix"/>
<feColorMatrix in="SourceAlpha" type="matrix" values="0 0 0 0 0 0 0 0 0 0 0 0 0 0 0 0 0 0 127 0" result="hardAlpha"/>
<feOffset dy="1"/>
<feGaussianBlur stdDeviation="1"/>
<feColorMatrix type="matrix" values="0 0 0 0 0 0 0 0 0 0 0 0 0 0 0 0 0 0 0.1 0"/>
<feBlend mode="normal" in2="BackgroundImageFix" result="effect1_dropShadow_6732_1016"/>
<feBlend mode="normal" in="SourceGraphic" in2="effect1_dropShadow_6732_1016" result="shape"/>
</filter>
<clipPath id="clip0_6732_1016">
<rect width="144" height="34" fill="white" transform="translate(2 1)"/>
</clipPath>
</defs>
</svg>
