<svg version="1.1"
   xmlns="http://www.w3.org/2000/svg" xmlns:xlink="http://www.w3.org/1999/xlink" xmlns:a="http://ns.adobe.com/AdobeSVGViewerExtensions/3.0/"
   x="0px" y="0px" width="35px" height="35px" viewBox="0 0 35 35" style="enable-background:new 0 0 35 35;" xml:space="preserve">
<style type="text/css">
  .st0{fill-rule:evenodd;clip-rule:evenodd;fill:#1DA1F2;}
  .st1{fill:#FFFFFF;}
</style>
<defs>
</defs>
<g>
  <g>
    <path class="st0" d="M4,0h27c2.2,0,4,1.8,4,4v27c0,2.2-1.8,4-4,4H4c-2.2,0-4-1.8-4-4V4C0,1.8,1.8,0,4,0z"/>
  </g>
  <g>
    <path class="st1" d="M13.4,26.4c8.3,0,12.8-6.8,12.8-12.8c0-0.2,0-0.4,0-0.6c0.9-0.6,1.6-1.4,2.2-2.3c-0.8,0.4-1.7,0.6-2.6,0.7
      c0.9-0.6,1.6-1.4,2-2.5C27,9.5,26,9.9,25,10.1c-0.8-0.9-2-1.4-3.3-1.4c-2.5,0-4.5,2-4.5,4.5c0,0.4,0,0.7,0.1,1
      c-3.7-0.2-7-2-9.3-4.7c-0.4,0.7-0.6,1.4-0.6,2.3c0,1.6,0.8,2.9,2,3.7c-0.7,0-1.4-0.2-2-0.6c0,0,0,0,0,0.1c0,2.2,1.5,4,3.6,4.4
      c-0.4,0.1-0.8,0.2-1.2,0.2c-0.3,0-0.6,0-0.8-0.1c0.6,1.8,2.2,3.1,4.2,3.1c-1.5,1.2-3.5,1.9-5.6,1.9c-0.4,0-0.7,0-1.1-0.1
      C8.5,25.7,10.9,26.4,13.4,26.4"/>
  </g>
</g>
</svg>
