<svg xmlns="http://www.w3.org/2000/svg" viewBox="0 0 110 70.5" width="110px" height="70.5px"><path d="M9,10.47a9,9,0,0,0-4.07,1h0a.46.46,0,0,1-.2.05.42.42,0,0,1-.42-.42V2.13A2.14,2.14,0,0,0,0,2.13V26.06a2.13,2.13,0,0,0,3.88,1.22h0a.41.41,0,0,1,.35-.18.44.44,0,0,1,.22.07h0A8.83,8.83,0,0,0,9,28.38,9,9,0,0,0,9,10.47ZM9,24.11a4.69,4.69,0,1,1,4.69-4.69A4.69,4.69,0,0,1,9,24.11Z" style="fill:#008acd"/><path d="M35.52,19.42a9,9,0,0,0,9,9A8.82,8.82,0,0,0,49,27.16h0a.41.41,0,0,1,.22-.07.44.44,0,0,1,.35.18h0a2.13,2.13,0,0,0,3.87-1.22V2.13a2.13,2.13,0,0,0-4.26,0v8.94a.42.42,0,0,1-.43.42.41.41,0,0,1-.19-.05h0a9,9,0,0,0-13,8Zm4.27,0a4.69,4.69,0,1,1,4.69,4.69A4.69,4.69,0,0,1,39.79,19.42Z" style="fill:#008acd"/><path d="M33,19.41a1.72,1.72,0,0,0-.49-1.2h0l-5-5a1.7,1.7,0,1,0-2.42,2.4h0l2.08,2.1H21.67a1.71,1.71,0,0,0,0,3.42H27.2l-2.08,2.1h0a1.7,1.7,0,1,0,2.42,2.4l5-5h0A1.72,1.72,0,0,0,33,19.41Z" style="fill:#008acd"/><path d="M65.09,10.47A9,9,0,1,0,69.6,27.16h0a.44.44,0,0,1,.22-.07.42.42,0,0,1,.35.18h0a2.13,2.13,0,0,0,3.88-1.22V19.42A9,9,0,0,0,65.09,10.47Zm-4.69,9a4.69,4.69,0,1,1,4.69,4.69A4.69,4.69,0,0,1,60.4,19.42Z" style="fill:#008acd"/><path d="M84.85,17.1h-3.3a1.28,1.28,0,0,1,0-2.56h6.23a2.13,2.13,0,1,0,0-4.26H81.55a5.54,5.54,0,1,0,0,11.08h3.3a1.28,1.28,0,0,1,0,2.56H78.61a2.14,2.14,0,0,0,0,4.27h6.24a5.55,5.55,0,0,0,0-11.09Z" style="fill:#008acd"/><path d="M101.34,9.05a8.47,8.47,0,0,0-3.69.84.33.33,0,0,1-.15,0,.42.42,0,0,1-.42-.42V2.13a2.14,2.14,0,0,0-4.27,0V26.06a2.14,2.14,0,0,0,4.27,0V17.58a4.27,4.27,0,0,1,8.53,0v8.48a2.13,2.13,0,0,0,4.26,0V17.58A8.53,8.53,0,0,0,101.34,9.05Z" style="fill:#008acd"/><polygon points="110 66.68 101.39 59.16 101.39 47.77 110 40.25 110 66.68" style="fill:#008acd"/><path d="M89.52,52.89a4.18,4.18,0,0,0-4.25,0,4.15,4.15,0,0,0-1.52,1.66A5.05,5.05,0,0,0,83.17,57a5.12,5.12,0,0,0,.57,2.45,4.25,4.25,0,0,0,1.53,1.64,4.15,4.15,0,0,0,4.25,0,4.25,4.25,0,0,0,1.53-1.64A5.12,5.12,0,0,0,91.62,57,5.05,5.05,0,0,0,91,54.55,4.22,4.22,0,0,0,89.52,52.89Z" style="fill:#008acd"/><path d="M90.67,36.24H8.7A8.71,8.71,0,0,0,0,45V61.8a8.7,8.7,0,0,0,8.7,8.7h82a8.7,8.7,0,0,0,8.71-8.7V45A8.71,8.71,0,0,0,90.67,36.24ZM15.49,65.39H7.77a2,2,0,1,1,0-4h7.72a3.25,3.25,0,1,0,0-6.49H12.28a7.25,7.25,0,1,1,0-14.49H20a2,2,0,0,1,0,4H12.28a3.25,3.25,0,1,0,0,6.49h3.21a7.25,7.25,0,1,1,0,14.49Zm15.08-4a1,1,0,0,0,.69.21,2.2,2.2,0,0,0,.57-.11,2.08,2.08,0,0,1,.77-.16,1.28,1.28,0,0,1,1,.51A1.86,1.86,0,0,1,34,63.07a1.9,1.9,0,0,1-1,1.62,4,4,0,0,1-2.15.6,6.08,6.08,0,0,1-3.28-.84c-.94-.58-1.41-1.8-1.41-3.62V52.91H25.08a1.95,1.95,0,0,1-2-2,1.84,1.84,0,0,1,.57-1.37A2,2,0,0,1,25.08,49h1.07V47.4a2,2,0,0,1,.61-1.51,2.07,2.07,0,0,1,1.52-.62,2,2,0,0,1,1.47.62,2.09,2.09,0,0,1,.6,1.51V49h1.81a1.95,1.95,0,0,1,2,2,1.89,1.89,0,0,1-.57,1.38,2,2,0,0,1-1.41.55H30.35v7.77A.87.87,0,0,0,30.57,61.36Zm20.21-3a7.29,7.29,0,0,1-1.86,5.27,7.09,7.09,0,0,1-5.29,1.91,7,7,0,0,1-5.26-1.92,7.24,7.24,0,0,1-1.85-5.26V50.84a2.13,2.13,0,0,1,.59-1.52,2.15,2.15,0,0,1,3,0,2.13,2.13,0,0,1,.59,1.52v7.57a3.66,3.66,0,0,0,.73,2.5,2.85,2.85,0,0,0,2.18.78,2.9,2.9,0,0,0,2.22-.78,3.66,3.66,0,0,0,.73-2.5V50.84a2.13,2.13,0,0,1,.59-1.52,2,2,0,0,1,1.51-.62,2,2,0,0,1,1.5.62,2.1,2.1,0,0,1,.6,1.52Zm18.47,5a2,2,0,0,1-2,2,2,2,0,0,1-1.61-.83h0a.38.38,0,0,0-.32-.17.47.47,0,0,0-.2.06h0A8.25,8.25,0,1,1,64.75,50h0a.39.39,0,0,0,.18,0,.4.4,0,0,0,.4-.38V41.39a2,2,0,1,1,3.92,0Zm7.37-.27A2.09,2.09,0,0,1,76,64.67a2.15,2.15,0,0,1-3,0,2.09,2.09,0,0,1-.59-1.51V50.84A2.13,2.13,0,0,1,73,49.32a2.15,2.15,0,0,1,3,0,2.13,2.13,0,0,1,.59,1.52Zm.09-17.58A1.66,1.66,0,0,1,76.15,47a2.86,2.86,0,0,1-1.66.38,2.6,2.6,0,0,1-1.63-.4,1.71,1.71,0,0,1-.53-1.41V45a1.66,1.66,0,0,1,.57-1.42,2.74,2.74,0,0,1,1.62-.39,2.65,2.65,0,0,1,1.65.4A1.68,1.68,0,0,1,76.71,45Zm18,15.87a8,8,0,0,1-3.06,3.06,8.93,8.93,0,0,1-8.53,0,8,8,0,0,1-3-3,9.42,9.42,0,0,1,0-8.87,8.08,8.08,0,0,1,3-3.07,8.82,8.82,0,0,1,8.53,0,8,8,0,0,1,3.06,3.07,9.42,9.42,0,0,1,0,8.87Z" style="fill:#008acd"/><circle cx="61" cy="57.32" r="4.32" style="fill:#008acd"/></svg>