<svg width="36px" height="36px" xmlns="http://www.w3.org/2000/svg"><path d="M15.817 16.254h-.004c0-.736.003-1.473-.001-2.21-.002-.375-.195-.6-.506-.607-.33-.007-.532.214-.533.608a905.649 905.649 0 00-.006 4.36c0 .41.207.659.525.658.321-.001.522-.249.524-.658.003-.717 0-1.434 0-2.15m-3.28 2.811v-.003c.366 0 .732.012 1.098-.004a.554.554 0 00.527-.517.566.566 0 00-.426-.581 1.184 1.184 0 00-.305-.037c-.347-.004-.694 0-1.041-.003-.38-.002-.395-.016-.396-.416-.004-1.16-.001-2.32-.007-3.48-.002-.37-.211-.592-.527-.588-.306.003-.512.216-.514.571a537.68 537.68 0 00-.005 4.455c.002.385.212.592.584.602.337.008.675.001 1.013.001m9.33-2.846h-.002c0 .718-.002 1.436.002 2.154.002.483.194.69.644.692.657.004 1.314.004 1.97 0 .376-.003.603-.208.616-.54.013-.326-.239-.585-.603-.6-.281-.011-.563.003-.844-.005-.774-.022-.73.202-.724-.841.001-.194.069-.276.272-.267.44.02.882.019 1.323.006a.575.575 0 00.574-.599c-.01-.32-.234-.53-.59-.54-.262-.007-.525.002-.787-.003-.866-.016-.744.15-.759-.83-.003-.232.093-.317.303-.315.403.005.806.002 1.21 0 .131 0 .264.001.379-.083.207-.15.297-.355.225-.613-.074-.267-.255-.407-.521-.409-.685-.003-1.37-.006-2.054 0-.452.004-.63.194-.633.668-.004.709 0 1.417 0 2.125m-.821.018h-.001c0-.717.004-1.435-.002-2.153-.004-.36-.167-.59-.428-.643-.373-.074-.654.17-.658.596-.008.806-.003 1.612-.006 2.418 0 .073.025.176-.073.198-.069.016-.116-.057-.155-.111-.219-.307-.436-.616-.653-.924-.445-.633-.885-1.269-1.336-1.897-.257-.358-.678-.384-.905-.073-.105.145-.1.313-.103.48-.022 1.375.038 2.752-.036 4.127-.007.139.014.275.056.406.085.264.313.425.56.4.251-.027.44-.226.47-.506.011-.098.008-.197.008-.295 0-.698-.003-1.396.002-2.094 0-.12-.06-.296.074-.344.118-.041.17.13.234.22.541.765 1.077 1.535 1.616 2.303.133.19.25.393.422.55.337.309.757.178.872-.274.03-.121.04-.252.04-.378.004-.669.002-1.337.002-2.006M17.46 29h-.337c-.305-.278-.344-.423-.195-.859.21-.613.384-1.235.399-1.89.01-.425-.175-.621-.566-.655a11.706 11.706 0 01-4.195-1.145c-2.143-1.053-3.875-2.573-4.876-4.882-.785-1.811-.91-3.678-.33-5.574.635-2.082 1.918-3.656 3.63-4.847 2.327-1.62 4.908-2.269 7.69-2.13 1.886.094 3.668.568 5.33 1.499 2.01 1.126 3.582 2.701 4.47 4.95.285.723.424 1.483.519 2.254v1.18c-.044.29-.079.582-.133.87-.333 1.755-1.215 3.198-2.377 4.462-1.52 1.653-3.248 3.05-5.058 4.333-1.272.902-2.566 1.768-3.97 2.434" fill="currentColor" fill-rule="evenodd"></path></svg>