<svg xmlns="http://www.w3.org/2000/svg" width="163" height="42"><defs><style>.a{fill:#fff}.b{fill:#c33}</style></defs><path d="M157 9c-2.4-3-5.8-4.4-10.2-4.4a12.3 12.3 0 0 0-12 8.1 14.5 14.5 0 0 0-2.2-3.8c-2.2-2.9-5.6-4.3-10-4.3a12.6 12.6 0 0 0-8.2 2.7s0 0 0-.1c0-3.9-3.3-6.8-7.7-6.8a8.3 8.3 0 0 0-6 2.4 6.4 6.4 0 0 0-1.2 1.8h-.4C93.7 4.6 88 8 88 14.4a10 10 0 0 0 .4 2.6 7 7 0 0 0-2.8 5.6A6.5 6.5 0 0 0 87 27a7.7 7.7 0 0 0-2 5.1c0 6 5.3 9.6 13.9 9.6a19.6 19.6 0 0 0 8.9-1.9 8.7 8.7 0 0 0 5.1-8 8.2 8.2 0 0 0-.3-2 12.3 12.3 0 0 0 9.8 4.5 12.7 12.7 0 0 0 12.3-8.2 12.3 12.3 0 0 0 12 8.1c8 0 13.5-6 13.5-14.9A16.7 16.7 0 0 0 156.9 9Zm-46.5 16.7A11.1 11.1 0 0 0 106 23a9.7 9.7 0 0 0 3.3-3.6 18.6 18.6 0 0 0 1 6.3Z" class="a"/><path d="M107.2 8a2 2 0 0 0 2 2 2.8 2.8 0 0 0 2.8-2.8c0-2.8-2.6-4.3-5.2-4.3a5.8 5.8 0 0 0-4.2 1.6 4.2 4.2 0 0 0-1.1 2.8 10.3 10.3 0 0 0-2.3-.2c-4.2 0-8.7 2.5-8.7 7.3a6.5 6.5 0 0 0 1 3.7 4.8 4.8 0 0 0-3.4 4.5c0 2.5 1.7 3.6 3.2 4.2a5.6 5.6 0 0 0-3.6 5.2c0 6.6 8.6 7.1 11.3 7.1 5.3 0 11.5-1.9 11.5-7.3 0-3-2-5.3-5.3-6.5a22.8 22.8 0 0 0-7.4-.9h-1.6c-2 0-4.2-.2-4.2-1.8a1.5 1.5 0 0 1 1.3-1.5 3.3 3.3 0 0 1 1 .2 12.6 12.6 0 0 0 5.1 1.2c4.3 0 8.6-2.6 8.6-7.7a7.5 7.5 0 0 0-3.4-6.3 2.6 2.6 0 0 1 .6-1.9 1.9 1.9 0 0 1 1.5-.5 1.8 1.8 0 0 1 1.2.5 1.9 1.9 0 0 0-.7 1.4Zm-3.2 6.7c0 3-2.5 4.2-4.8 4.2s-4.5-1.3-4.5-4.1a4.3 4.3 0 0 1 4.6-4.2 4.5 4.5 0 0 1 4.7 4.1Zm-5 20.9a14.7 14.7 0 0 1-4.5-.7c-1.2-.4-2.5-1.5-2.5-3a3.4 3.4 0 0 1 2-2.8 13.5 13.5 0 0 1 5.1-.8c2.7 0 7 .4 7 3.6 0 3.5-5.9 3.7-7.1 3.7ZM122.6 7c-6.5 0-10.7 4.9-10.7 12.4s4.2 12.3 10.6 12.3c6.7 0 11-4.9 11-12.4a14 14 0 0 0-2.8-8.8C129 8.2 126.2 7 122.6 7Zm0 21c-6 0-6.4-6.7-6.4-8.7a12.1 12.1 0 0 1 1.4-5.8 5.4 5.4 0 0 1 5.2-2.8 5.6 5.6 0 0 1 5 2.4 11.6 11.6 0 0 1 1.5 6c0 2.7-.7 8.9-6.7 8.9ZM155 10.5c-1.9-2.3-4.5-3.5-8.2-3.5-6.5 0-10.7 4.9-10.7 12.4s4.2 12.3 10.7 12.3c6.7 0 11-4.9 11-12.4a14.1 14.1 0 0 0-2.8-8.8ZM146.8 28c-5.9 0-6.4-6.7-6.4-8.7a12 12 0 0 1 1.5-5.8 5.4 5.4 0 0 1 5.2-2.8 5.6 5.6 0 0 1 4.9 2.4 11.6 11.6 0 0 1 1.5 6c0 2.7-.6 8.9-6.7 8.9Z" class="b"/><path d="M121.6 20.9a2.8 2.8 0 1 0 2.8 2.8 2.8 2.8 0 0 0-2.8-2.8Zm23.8 0a2.8 2.8 0 1 0 2.8 2.8 2.8 2.8 0 0 0-2.8-2.8Z" class="b"/><path d="M27 31.3a1.3 1.3 0 0 1-.8-.2 20.5 20.5 0 0 1-3.2-3 21 21 0 0 1-4 3 1.3 1.3 0 0 1-.7.2 1.3 1.3 0 0 1-1-.5l-1.6-2.3c-.1 2-1.2 2.8-3.3 2.8h-3a1.3 1.3 0 0 1-1.3-1l-.4-2.5a1 1 0 0 1 0-.2H7a1.2 1.2 0 0 1-1.3-1.2l-.2-2.6a1.3 1.3 0 0 1 1-1.3l-1-2a1.3 1.3 0 0 1 .7-1.7l1-.6H7A1.2 1.2 0 0 1 5.8 17v-2.5a1.2 1.2 0 0 1 .7-1 1.2 1.2 0 0 1-.2-.7v-2.4a1.2 1.2 0 0 1 1.3-1.2h2v-.5A1.3 1.3 0 0 1 11 7.5h2.6a1.3 1.3 0 0 1 1.2 1.2v.5H16l.2-.5a1.2 1.2 0 0 1 .7-.6 1.3 1.3 0 0 1 .4-.1 1.2 1.2 0 0 1 .6.1l1.5.7v-.4a1.3 1.3 0 0 1 1.3-1l2.7.2A1.3 1.3 0 0 1 24.5 9l-.3 1.6h4a1.3 1.3 0 0 1 1.2 1.3v2.8a1.2 1.2 0 0 1-1.1 1.3 22.7 22.7 0 0 1-2 7.7 20.2 20.2 0 0 0 3 2.7l.1.1a1.2 1.2 0 0 1 .4-.8l3.5-3.2 2-1.8 2.5-2.2-5.6.2a1.3 1.3 0 0 1-1.2-1.3v-3a1.3 1.3 0 0 1 1.2-1.2h5-2.4a1.3 1.3 0 0 1-1-.4 1.3 1.3 0 0 1-.2-1l.3-2.6A1.2 1.2 0 0 1 35 8h.5a50.5 50.5 0 0 1 10.9 1.2 1.3 1.3 0 0 1 1 1.4l-.5 2.8a1.3 1.3 0 0 1-.2.5 1.2 1.2 0 0 1 .1.4v2.4a1.2 1.2 0 0 1-.5 1l-2.4 2c.8.5 1.4 1.6 1.4 3.7v1.4a8.3 8.3 0 0 0 1.6.1l2.7-.2h.4a1.2 1.2 0 0 1 .8.3 1.3 1.3 0 0 1 .5 1v3a1.3 1.3 0 0 1-1.2 1.2l-2.8.1c-3.8 0-5.3-.4-6.4-1.8a5.3 5.3 0 0 1-.9-3.3V24a2.5 2.5 0 0 0-1.2.4L33.6 30a1.2 1.2 0 0 1-.9.4 1.3 1.3 0 0 1-1-.4l-1.9-2.4a1.4 1.4 0 0 1-.2.5L28 30.7a1.2 1.2 0 0 1-.8.6Zm-7.2-7.5.2-.2-.2-.5Zm-9.2-1.6Zm8-.8a1.2 1.2 0 0 1 .6.2s0-.1 0-.2a1.3 1.3 0 0 1-.8-.2l-.1.1a.9.9 0 0 1-.2.2h.3Zm4.2-5.4a12.7 12.7 0 0 0 .2 1.2l.1-1.2Zm54.3 14.6a1.3 1.3 0 0 1-1.3-1.3v-3.1a1.3 1.3 0 0 1 .7-1.2 1.2 1.2 0 0 1-.3-.8l-.4-14a1.3 1.3 0 0 1 .3-1 1.2 1.2 0 0 1 1-.3h3.2a1.2 1.2 0 0 1 .9.3 1.3 1.3 0 0 1 .3 1l-.4 14a1.2 1.2 0 0 1-.3.8 1.3 1.3 0 0 1 .7 1.1v3.2a1.3 1.3 0 0 1-1.3 1.3Zm-8.1-.3c-4.8 0-7.4-.4-9.8-1.6a7.4 7.4 0 0 1-4.3-6.5 10.3 10.3 0 0 1 3.2-7.1l-6 .5H52a1.3 1.3 0 0 1-.8-.3 1.3 1.3 0 0 1-.5-1v-3.1a1.3 1.3 0 0 1 1.2-1.3c1 0 2.6 0 4.9-.2l12.3-.5h2.3a1.2 1.2 0 0 1 .9.3 1.3 1.3 0 0 1 .4.8v3a1.3 1.3 0 0 1-.3 1 1.2 1.2 0 0 1-.9.3h-2.7a8.3 8.3 0 0 0-5 2c-.5.4-3.2 2.6-3.2 5.2 0 .8 0 2.8 7.4 2.8h1.4a1.2 1.2 0 0 1 1.3 1.4l-.5 3.3a1.2 1.2 0 0 1-1.2 1Z"/><path d="m20.6 8.6 2.6.2c0 .8-.2 1.7-.5 3h5.4v2.9h-1c-.3 4.5-1.2 7.2-2.3 9.1a21.2 21.2 0 0 0 3.8 3.5l-1.7 2.8a18.6 18.6 0 0 1-3.8-3.8 19.2 19.2 0 0 1-4.8 3.7l-1.8-2.5a13.7 13.7 0 0 0 5-3.7 17.4 17.4 0 0 1-1.7-4.7c-.4.6-.5.8-.8 1l-1.8-2.3.6-.8H15l-1.4 1.4h3.6v2.1a15 15 0 0 1-2.7 2.3v.4l4-.5V25l-4 .5V28c0 1.5-.5 2.1-2.2 2.1h-3l-.5-2.5h2.4c.6 0 .7-.2.7-.7v-1l-4.9.4-.1-2.6c1.2 0 2.3 0 5-.3V22h.6a6.5 6.5 0 0 0 1.3-1.3h-3A25 25 0 0 1 8 22.3l-1.3-2.4a20.7 20.7 0 0 0 4.7-2.9H7v-2.5h3.9v-1.7H7.5v-2.4H11V8.7h2.6v1.7H16v1.3a20.7 20.7 0 0 0 1.3-2.5l2.3 1.1a24 24 0 0 1-2.6 4.2h1.3v1.6a23 23 0 0 0 2.2-7.5m-7.2 6h.5l1.4-1.8h-1.8v1.7m9.7 6.8a18.1 18.1 0 0 0 1.4-6.6H22l-.4 1.1a16.2 16.2 0 0 0 1.6 5.5m12.5-12a49.4 49.4 0 0 1 10.6 1.2l-.5 2.8A45.1 45.1 0 0 0 35.3 12h-.4l.3-2.6h.5m44.6.8-.4 14h-2.5l-.4-14h3.2m-8.8.3v3h-2.7a9.6 9.6 0 0 0-5.7 2.1c-1.3 1-3.7 3.4-3.7 6.2 0 1.7.6 4.2 8.6 4.2h1.5l-.4 3c-5 0-7.2-.5-9.3-1.5a6.2 6.2 0 0 1-3.5-5.4c0-1.5.4-5.3 5.8-8.7l-10 .8-.2-3.1 5-.3 14.6-.5m-25.7 4v2.4L41 20.6a2.8 2.8 0 0 1 1-.2c1.7 0 2.2 1.2 2.2 3v.9c0 1.6.1 2 2.8 2l3.1-.3v3a25.8 25.8 0 0 1-2.7.2c-3.6 0-4.7-.5-5.5-1.4a4.2 4.2 0 0 1-.6-2.5v-.9c0-.7 0-1.6-1-1.6a3.6 3.6 0 0 0-2.2.8c-1.2 1-5 5-5.4 5.5l-2-2.5 5.5-5 5-4.5-9 .3v-3h13.4m34.6 11.7v3.2h-3.1v-3.2h3.1m-59.6-20a2.5 2.5 0 0 0-2 1l-.3-.1a2.6 2.6 0 0 0-1-.2 2.3 2.3 0 0 0-1 .1 2.4 2.4 0 0 0-.7.5 2.5 2.5 0 0 0-2.1-1.2h-2.6A2.5 2.5 0 0 0 8.5 8h-1A2.5 2.5 0 0 0 5 10.4V13a2.5 2.5 0 0 0-.5 1.5V17a2.5 2.5 0 0 0 .4 1.3 2.4 2.4 0 0 0-.5.8 2.5 2.5 0 0 0 .1 2l.5.9a2.5 2.5 0 0 0-.6 1.9l.2 2.6a2.5 2.5 0 0 0 2 2.2l.3 1.8a2.5 2.5 0 0 0 2.5 2h3a4.5 4.5 0 0 0 3.6-1.4l.3.4a2.5 2.5 0 0 0 2 1 2.6 2.6 0 0 0 1.3-.3 22.3 22.3 0 0 0 3.3-2.3 21.2 21.2 0 0 0 2.5 2.2 2.5 2.5 0 0 0 1.5.5 2.6 2.6 0 0 0 .5 0 2.5 2.5 0 0 0 1.7-1.2l1-1.6.7.9a2.5 2.5 0 0 0 1.9 1 2.5 2.5 0 0 0 2-1l4.3-4.4a5.9 5.9 0 0 0 1 3c1.5 2 3.8 2.3 7.4 2.3l3-.1a2.5 2.5 0 0 0 2.2-2.5v-3a2.5 2.5 0 0 0-2.5-2.4h-.5l-2.6.1h-.3v-.2a6.5 6.5 0 0 0-.9-3.6l1.4-1a2.5 2.5 0 0 0 1-2v-2.5a2.2 2.2 0 0 0 0-.3 1.6 1.6 0 0 0 0-.3l.6-2.8a2.5 2.5 0 0 0-2-3 51.8 51.8 0 0 0-11.1-1.2H35A2.5 2.5 0 0 0 32.7 9l-.3 2.6v.4h-.1a2.5 2.5 0 0 0-1.6.5v-.7a2.5 2.5 0 0 0-2.5-2.5h-2.5a1.5 1.5 0 0 0 0-.2 2.5 2.5 0 0 0-.6-1.9 2.5 2.5 0 0 0-1.7-.9l-2.6-.2ZM29.4 17a2 2 0 0 0 .3-.2v.7a2.5 2.5 0 0 0 2.5 2.5h2.3l-2 1.7-3.3 3-1.4-1.1a23.8 23.8 0 0 0 1.6-6.6Zm50.9-9.3H77a2.5 2.5 0 0 0-2.5 2.6l.4 14a2 2 0 0 0 0 .6 2.5 2.5 0 0 0-.3 1.4v3.2a2.5 2.5 0 0 0 2.5 2.4h3a2.5 2.5 0 0 0 2.6-2.4v-3.2a2.5 2.5 0 0 0-.4-1.4 2 2 0 0 0 0-.5l.4-14a2.5 2.5 0 0 0-2.5-2.7Zm0 5ZM71.4 8H69a1233.8 1233.8 0 0 0-17 .7 2.5 2.5 0 0 0-2.6 2.6l.2 3.2a2.5 2.5 0 0 0 2.4 2.3h.2l3.1-.3a10.8 10.8 0 0 0-1.6 5.7 8.7 8.7 0 0 0 4.9 7.6c2.6 1.3 5.3 1.8 10.4 1.8a2.5 2.5 0 0 0 2.5-2.2l.4-3.1a2.1 2.1 0 0 0 0-.4 2.5 2.5 0 0 0-2.5-2.5h-1.5c-4 0-5.5-.7-5.9-1-.2-.2-.3-.3-.3-.7 0-1.5 1.5-3.2 2.8-4.2a7 7 0 0 1 4.3-1.7h2.6a2.5 2.5 0 0 0 2.6-2.5v-3a2.5 2.5 0 0 0-.9-1.7 2.5 2.5 0 0 0-1.7-.7Z" class="a"/></svg>