<svg version="1.1"
   xmlns="http://www.w3.org/2000/svg" xmlns:xlink="http://www.w3.org/1999/xlink" xmlns:a="http://ns.adobe.com/AdobeSVGViewerExtensions/3.0/"
   x="0px" y="0px" width="35px" height="35px" viewBox="0 0 35 35" style="enable-background:new 0 0 35 35;" xml:space="preserve">
<style type="text/css">
  .st0{fill:#3B5998;}
  .st1{fill:#FFFFFF;}
</style>
<defs>
</defs>
<g>
  <path class="st0" d="M33.1,35c1.1,0,1.9-0.9,1.9-1.9V1.9C35,0.9,34.1,0,33.1,0H1.9C0.9,0,0,0.9,0,1.9v31.1C0,34.1,0.9,35,1.9,35
    H33.1z"/>
  <path class="st1" d="M18.7,35V21.4h-4.6v-5.3h4.6v-3.9c0-4.5,2.8-7,6.8-7c1.9,0,3.6,0.1,4.1,0.2v4.7l-2.8,0c-2.2,0-2.6,1-2.6,2.6
    v3.4h5.2l-0.7,5.3h-4.5V35H18.7z"/>
</g>
</svg>
